<?xml version="1.0" standalone="no"?>
<!DOCTYPE svg PUBLIC "-//W3C//DTD SVG 1.1//EN" "http://www.w3.org/Graphics/SVG/1.1/DTD/svg11.dtd" >
<svg xmlns="http://www.w3.org/2000/svg" xmlns:xlink="http://www.w3.org/1999/xlink" version="1.1">
<metadata></metadata>
<defs>
<font id="optidanley-mediumregular" horiz-adv-x="1175" >
<font-face units-per-em="2048" ascent="1638" descent="-410" />
<missing-glyph horiz-adv-x="356" />
<glyph horiz-adv-x="0" />
<glyph horiz-adv-x="682" />
<glyph unicode=" " horiz-adv-x="356" d="M0 0z" />
<glyph unicode="!" horiz-adv-x="602" d="M210.5 1349.5q-1.5 39.5 0 78.5t10 71t23.5 51q50 60 125 60q80 0 129 -60q74 -88 18 -401l-117 -637q0 -14 -6 -35.5t-16 -21.5q-17 17 -17 39l-118 622q0 1 -5 27t-9.5 55t-10 70.5t-7 81zM227 141q0 68 40 115t106 47q64 0 103.5 -47t39.5 -115q0 -69 -39.5 -116.5 t-103.5 -47.5q-66 0 -106 47t-40 117z" />
<glyph unicode="&#x22;" horiz-adv-x="700" d="M211 1457.5q-2 35.5 1 59t13.5 46.5t28.5 34q13 12 39.5 11.5t52.5 -15.5q19 -12 29.5 -37t10.5 -63t-1.5 -63.5t-7.5 -66.5t-6 -44l-49 -385h-43l-48 381q0 2 -6 34.5t-9 52.5t-5 55.5zM455.5 1484q1.5 22 5 45.5t13.5 41t26 26.5q13 12 39.5 11.5t50.5 -15.5 q24 -14 33.5 -54.5t8 -74.5t-8.5 -87t-7 -58l-47 -385h-43l-51 381q-1 3 -5.5 28.5t-6.5 42.5t-5.5 46.5t-2 51.5z" />
<glyph unicode="#" horiz-adv-x="1808" d="M205 485l51 140h330l110 305h-334l52 139h331l173 481h176l-168 -481h293l170 481h178l-172 -481h338l-50 -139h-335l-113 -305h338l-51 -140h-334l-176 -489h-176l172 489h-291l-176 -489h-179l177 489h-334zM766 625h291l110 305h-293z" />
<glyph unicode="$" horiz-adv-x="1056" d="M123 261q-5 45 14 85q29 63 92 66q62 7 109 -54q20 -24 28.5 -72.5t10.5 -92.5t6 -52q14 -32 36 -52.5t48.5 -28t42.5 -9.5t39 -2v576q-164 89 -218 128q-118 85 -150 199q-10 38 -13 82q-17 254 170 381q106 71 215 82v47h92v-51q34 -2 80 -13.5t98.5 -32.5t98 -58 t65.5 -82q29 -71 -6 -123q-33 -51 -92 -45t-92 73q-11 18 -23 64q-2 4 -8.5 30t-9.5 33q-10 16 -15 23t-15 15.5t-24 15.5q-7 4 -29 9t-32 5v-31v-475q53 -23 86 -38t77.5 -38.5t72.5 -43.5t60 -49.5t52 -60t37 -71t25 -86.5q17 -89 -10 -211.5t-111 -204.5 q-33 -32 -67 -54.5t-73 -36.5t-68.5 -21.5t-78.5 -16.5v-88h-94v88q-304 26 -399 207q-22 40 -27 85zM346 1184q8 -127 203 -234v457q-82 -4 -129 -41q-83 -62 -74 -182zM643 47q37 2 90.5 20.5t83.5 49.5q43 45 60 114.5t8 120.5q-16 84 -78.5 140t-163.5 96v-541z" />
<glyph unicode="%" horiz-adv-x="1173" d="M125 1039.5q-6 67.5 9 139t52 124.5q39 58 101 88q41 21 92.5 21.5t97.5 -23.5q123 -72 144 -265q3 -45 -4.5 -103t-35.5 -126t-73 -107q-80 -71 -197 -43q-113 35 -159 166q-21 61 -27 128.5zM270 29l697 1489l63 -27l-696 -1491zM286.5 990.5q4.5 -113.5 14.5 -142.5 q17 -55 51 -68q31 -10 60 15q20 17 32 70t14.5 121t2 109t-1.5 72q-9 160 -51 191q-30 19 -60 4q-38 -19 -52 -138.5t-9.5 -233zM675 384.5q-6 67.5 9.5 138.5t52.5 124q46 63 103 88q40 21 91.5 21.5t98.5 -23.5q120 -69 141 -264q5 -44 -2.5 -102.5t-36 -126.5t-73.5 -107 q-80 -71 -197 -43q-114 35 -160 166q-21 61 -27 128.5zM838.5 335.5q4.5 -112.5 13.5 -142.5q17 -55 51 -68q35 -11 60 14q20 17 32 70t14.5 121.5t2 109.5t-1.5 72q-9 159 -52 190q-28 18 -59 5q-38 -19 -51.5 -139t-9 -232.5z" />
<glyph unicode="&#x26;" horiz-adv-x="1540" d="M119 430q3 73 26 141q21 63 55 115.5t86.5 100t100 81.5t123.5 82q-48 92 -71 162.5t-20.5 148t40.5 148.5q91 171 278 188q62 8 148.5 -12.5t134.5 -79.5q28 -33 39.5 -76t-0.5 -79q-8 -31 -32.5 -57t-59.5 -36q-65 -19 -117 31q-28 26 -60 107t-55 100q-44 28 -86 18 q-25 -9 -44.5 -31t-26.5 -52q-5 -19 -5 -38.5t2.5 -35.5t12 -38t16.5 -36.5t24 -40t26 -38.5t31 -43t32 -44l282 -403q9 44 23.5 84t41 85t70 80t99.5 52q40 17 96 12t98 -35q60 -47 54 -123q-4 -74 -66 -110q-23 -14 -47.5 -15.5t-40 3.5t-45.5 17.5t-47 18.5 q-58 21 -102 -12q-52 -40 -62 -162l332 -489q20 -28 59 -54.5t62 -35.5q12 -4 16 -11t-2 -12.5t-20 -5.5h-445q-11 0 -16 6t-1 13.5t15 11.5q16 8 20.5 23t1.5 28.5t-12 36.5q-8 25 -108 155q-89 -151 -183.5 -217t-232.5 -73q-89 -5 -186 31t-164 124q-47 64 -69 141 t-19 150zM344 586q-3 -93 37.5 -195.5t120.5 -165.5q112 -87 235 -53q115 35 158 150q14 41 14 53l-360 510q-113 -60 -156.5 -128.5t-48.5 -170.5z" />
<glyph unicode="'" horiz-adv-x="589" d="M211 1483q16 80 98 114q31 15 75 11t73 -29q35 -28 51 -68t15 -77.5t-5 -77.5q-20 -157 -172 -238q77 103 55 146q-7 15 -27.5 25.5t-49.5 20.5t-41 17q-44 27 -62 68.5t-10 87.5z" />
<glyph unicode="(" horiz-adv-x="751" d="M131 618q-77 627 465 1002q51 36 131 72q8 3 12 -2.5t-2 -14.5q-130 -153 -211 -360t-103.5 -409.5t-4 -391.5t77.5 -326q39 -94 89.5 -169t139.5 -171q6 -6 2 -11.5t-10 -2.5q-257 101 -404 306t-182 478z" />
<glyph unicode=")" horiz-adv-x="745" d="M129.5 1689.5q4.5 5.5 13.5 2.5q75 -33 129 -72q542 -375 465 -1002q-33 -272 -180 -477.5t-403 -306.5q-6 -3 -10.5 2.5t1.5 11.5q88 95 138.5 170t91.5 170q47 109 69.5 251.5t16 305.5t-41 325.5t-108.5 322t-180 282.5q-6 9 -1.5 14.5z" />
<glyph unicode="*" horiz-adv-x="882" d="M125 1360q5 26 23 49t47 33q53 18 112 -29q1 -1 25.5 -32.5t50 -62.5t53.5 -54.5t41 -16.5q12 6 -9 65t-43 130.5t-11 101.5q10 46 63 64q65 10 98 -23q39 -28 33 -94q-5 -29 -26.5 -71.5t-26.5 -55.5q-7 -12 -14 -27.5t-15 -37.5t-7.5 -35.5t9.5 -22.5q15 -8 54.5 29.5 t58.5 64.5q5 7 19.5 25.5t19.5 25t16.5 19.5t18.5 18.5t17 11.5t20 9q47 18 90 -10q39 -28 39 -93q-8 -63 -58 -79q-20 -7 -91 -15t-126.5 -19t-58.5 -30q-3 -17 58 -27.5t137.5 -22t99.5 -28.5q42 -31 39 -88q-2 -25 -17 -48t-41 -36q-43 -22 -94 4q-25 16 -40.5 31.5 t-32 39t-25.5 34.5q-16 23 -55.5 59t-47.5 31q-15 -9 2 -61t35 -85q31 -73 38.5 -98t4.5 -53q-13 -48 -63 -72q-11 -7 -45.5 -4.5t-48.5 12.5q-40 27 -37 88q1 31 23 97.5t38 117.5t6 58q-12 8 -55 -35.5t-82 -89.5q-26 -31 -38.5 -44.5t-33.5 -26.5t-43 -15q-60 0 -88 45 q-10 15 -11 43.5t11 50.5q15 23 40.5 37t45 18.5t66.5 12.5q7 1 30 3t42 5t40 7.5t33 12.5t11 19q0 6 -6 12t-14.5 10t-21 7.5t-24 6t-25.5 5t-22.5 3.5t-18 2t-10.5 1q-11 1 -35.5 3t-36 3t-28 4.5t-28.5 9t-21 13.5q-42 36 -33 90z" />
<glyph unicode="+" horiz-adv-x="1669" d="M209 559v266h563v566h262v-566h553v-266h-553v-559h-262v559h-563z" />
<glyph unicode="," horiz-adv-x="589" d="M199 180q13 78 98 115q31 13 73.5 8.5t71.5 -29.5q34 -27 51 -67t16.5 -78t-3.5 -78q-20 -156 -172 -237q76 105 55 145q-7 15 -28 26t-49.5 21.5t-41.5 18.5q-88 52 -71 155z" />
<glyph unicode="-" horiz-adv-x="782" d="M207 606l51 197h420l-45 -197h-426z" />
<glyph unicode="." horiz-adv-x="575" d="M209 166q0 68 38 112t101 44t101 -44t38 -112q0 -66 -38 -111t-101 -45t-101 45t-38 111z" />
<glyph unicode="/" horiz-adv-x="1087" d="M203 27l776 1454l63 -29l-774 -1454z" />
<glyph unicode="0" d="M141 859.5q9 120.5 37 209.5q97 338 340 408q95 32 206.5 14.5t197.5 -88.5q53 -43 95 -109t65.5 -138t40.5 -152t21 -151.5t6.5 -137t-3.5 -107.5q-5 -42 -16 -95t-35.5 -126t-56 -137.5t-82 -124.5t-109.5 -92q-54 -29 -121 -43q-54 -8 -111 -3.5t-108.5 19t-104.5 52 t-100 96.5q-67 83 -108 207t-52 251t-2 247.5zM422 739q0 -50 2.5 -122t5.5 -119l2 -47q0 -20 5.5 -65t19 -113.5t44 -128.5t72.5 -83q34 -20 76.5 -20t71.5 20q37 24 61.5 64t36.5 100t16.5 105t8.5 120q0 9 0.5 13.5t1 11t0.5 12.5q8 169 8 275q0 47 -2.5 116t-5.5 114 l-2 46q-1 7 -5 55.5t-6.5 71t-11 68.5t-18 74t-27 59.5t-39.5 50.5q-28 26 -73 30t-72 -9q-143 -47 -159 -410q-1 -13 -1 -16q-10 -167 -10 -273z" />
<glyph unicode="1" d="M404 18q4 7 14 11q26 11 38.5 20t28.5 31.5t22.5 64t6.5 105.5v897q0 52 -5.5 89t-11 57t-22 36.5t-25 21.5t-32.5 17q-8 4 -10.5 9t2 10.5t18.5 9.5l309 94q28 6 36.5 -0.5t8.5 -32.5v-176v-1032q0 -52 6 -89.5t13.5 -58.5t23 -36.5t26.5 -21.5t32 -15q15 -6 13 -17.5 t-24 -11.5h-444q-15 0 -21.5 5.5t-2.5 12.5z" />
<glyph unicode="2" d="M164 0l409 506q136 171 208 341.5t30 297.5q-38 114 -160 151q-79 22 -172 -1.5t-176 -90.5q-49 -40 -76 -80q-25 -32 -40 -22q-7 4 -3 14q17 92 103.5 193.5t189.5 148.5q95 43 226.5 39t226.5 -59q156 -91 176 -271q17 -154 -70 -304.5t-286 -336.5l-289 -272h160 q18 0 59 -0.5t55 0t47.5 1.5t47.5 4t42.5 8t45 13t42.5 20t47.5 28t48 37t54.5 47q11 10 19.5 6t5.5 -21l-91 -352q-4 -21 -27 -34t-50 -11h-803z" />
<glyph unicode="3" d="M178.5 282q-6.5 53 14.5 99q38 71 96 76q69 4 112 -54q24 -28 35 -88t15 -117.5t10 -70.5q43 -78 131 -88q96 -8 160 72q33 40 47.5 138.5t10.5 191.5t-19 137q-21 71 -59 111.5t-107 60.5q-44 12 -99 14q-3 0 -7 -0.5t-6.5 -0.5h-5t-3.5 1.5t-2 3.5q-1 3 1.5 5t7.5 4 t7 3q118 55 178.5 124t77.5 183q17 131 -63 193q-92 71 -240 16q-79 -31 -164 -116q-14 -14 -18 -13q-7 3 6 25q53 118 131.5 189.5t194.5 103.5q61 20 156 5.5t157 -63.5q103 -85 96 -221q-7 -114 -85.5 -206t-215.5 -181q56 -13 91.5 -24t82 -31.5t77.5 -46t60 -66 t47 -92.5q32 -83 18.5 -186t-71.5 -180q-172 -226 -461 -205q-58 2 -120.5 19t-131.5 61.5t-106 109.5q-30 51 -36.5 104z" />
<glyph unicode="4" d="M85 356q-3 6 3 15l881 1142v-1050h176v-113h-176v-100q0 -64 7 -105.5t23.5 -64t29.5 -31.5t40 -20q9 -4 12.5 -11t-3 -12.5t-21.5 -5.5h-443q-15 0 -21.5 5.5t-2.5 12.5t14 11q26 11 38.5 20t28.5 31.5t22.5 64t6.5 105.5v100h-600q-12 0 -15 6zM287 463h413v543z" />
<glyph unicode="5" d="M201 350q12 35 40 62t64 37q34 6 70 -3t61 -34q24 -25 34 -60.5t8.5 -65.5t-0.5 -67t9 -61q11 -37 42 -65t75 -38q42 -10 91 3.5t85 50.5q43 41 66 107t22.5 125t-8.5 110q-21 97 -71 154t-154 93q-81 29 -169 33.5t-167 -6.5v745h590q52 0 141 13q7 2 10 -2t0 -19 l-65 -250h-586v-235q60 2 98 2t108.5 -3t123.5 -16t114 -34.5t110.5 -60.5t84.5 -91q49 -73 68 -166t9 -181t-44 -163q-102 -235 -365 -272q-34 -3 -74.5 -4.5t-90.5 7.5t-97 23t-92.5 42t-77.5 65q-39 47 -59 111.5t-4 113.5z" />
<glyph unicode="6" d="M182 508q-8 107 6.5 213.5t54 216t116.5 214t186 187.5q94 71 176 109t205 72l22 4q11 -11 -6 -21q-161 -120 -251.5 -236.5t-147.5 -289.5q77 22 138 27.5t133 -15t134 -74.5q64 -56 102.5 -149t48 -175.5t1.5 -152.5q-11 -91 -36 -161.5t-81.5 -137t-142.5 -110.5 q-88 -44 -200 -44.5t-214 52.5q-65 37 -113.5 95.5t-74.5 126t-39.5 128t-16.5 121.5zM466.5 544.5q0.5 -124.5 11.5 -232t26 -150.5q33 -94 104 -117q68 -17 121 21q30 21 49.5 66.5t27.5 112.5t10 95.5t3 83.5v57q0 6 1 47.5t0 67.5t-3 71.5t-8.5 78.5t-17 69.5 t-28.5 62.5t-42 40q-67 41 -143 2q-56 -32 -84 -141.5t-27.5 -234z" />
<glyph unicode="7" d="M162 1085l88 361q10 32 16 35q4 2 28.5 -1t61.5 -7t62 -5h669l-425 -1468h-359l623 1219h-357q-136 0 -176 -6q-107 -17 -195 -106l-22 -24q-3 -2 -6 -2.5t-5.5 0.5t-2.5 4z" />
<glyph unicode="8" d="M152 360q-6 128 46.5 214.5t202.5 189.5q-227 190 -196 401q16 103 68.5 177.5t158.5 121.5q87 33 197 33q166 0 258 -63q146 -104 135 -269q-4 -91 -48 -150t-159 -132q91 -54 143 -93t95 -89.5t60 -109.5t17 -140q0 -112 -49.5 -220t-156.5 -172q-113 -68 -282 -72.5 t-280 54.5q-196 105 -210 319zM342.5 367.5q3.5 -49.5 15.5 -97.5q49 -169 191 -209q55 -20 146 -6.5t143 60.5q53 46 74.5 112.5t13.5 122.5q-7 44 -27.5 82t-45 64t-67 53.5t-75 44.5t-86.5 44q-23 11 -35 17q-103 54 -119 62q-54 -54 -85.5 -116.5t-39 -123t-4 -110z M401 1225q2 -30 12.5 -57.5t24 -48.5t37.5 -43t43 -36t52 -32.5t52.5 -28t55.5 -26.5t51 -25q121 116 117 264q-4 153 -115 213q-52 26 -126.5 23t-117.5 -31q-47 -30 -68 -78t-18 -94z" />
<glyph unicode="9" d="M180 1042q17 140 75.5 243t184.5 169q89 42 200.5 42.5t213.5 -52.5q52 -29 94 -74.5t68.5 -93.5t44.5 -104t26 -104t11 -95q8 -107 -6.5 -213t-54 -215.5t-116.5 -214t-186 -187.5q-60 -46 -136.5 -85t-124 -57t-120.5 -42l-20 -2q-11 11 4 20q161 120 251.5 237 t147.5 290q-76 -22 -137 -27t-133 15.5t-133 74.5q-94 82 -130.5 222t-23.5 253zM460 885q1 -26 3 -71.5t8.5 -78t17 -69t28.5 -62t42 -39.5q42 -21 77.5 -20t65.5 18q56 31 84 140t27.5 233.5t-11.5 232t-26 150.5q-29 95 -104 117q-67 17 -121 -19q-30 -22 -49.5 -67 t-27.5 -110.5t-10 -95.5t-3 -85v-60q0 -6 -1 -47t0 -67z" />
<glyph unicode=":" horiz-adv-x="575" d="M209 166q0 68 38 112t101 44t101 -44t38 -112q0 -66 -38 -111t-101 -45t-101 45t-38 111zM209 866q0 68 38 112t101 44t101 -44t38 -112q0 -66 -38 -110.5t-101 -44.5t-101 44.5t-38 110.5z" />
<glyph unicode=";" horiz-adv-x="589" d="M209 872q0 66 38 111t101 45t101 -45t38 -111q0 -67 -38 -111t-101 -44t-101 44t-38 111zM211 180q16 78 98 115q31 13 75 8.5t73 -29.5q83 -64 61 -223q-20 -156 -172 -237q76 105 55 145q-7 15 -27.5 26t-49 21.5t-41.5 18.5q-89 54 -72 155z" />
<glyph unicode="&#x3c;" horiz-adv-x="1267" d="M209 578v245l1001 373v-225l-764 -271l764 -270v-225z" />
<glyph unicode="=" horiz-adv-x="1947" d="M209 254v264h1667v-264h-1667zM209 868v265h1667v-265h-1667z" />
<glyph unicode="&#x3e;" horiz-adv-x="1267" d="M209 205v225l766 270l-766 271v225l1001 -373v-245z" />
<glyph unicode="?" horiz-adv-x="991" d="M126 1313q0 2 1 4q46 108 133.5 182t190.5 98q64 13 134 13.5t150 -26t137 -75.5q65 -57 95 -137t22 -151q-9 -66 -29 -114.5t-61.5 -90t-89.5 -73.5t-131 -77l-49 -22q-70 -34 -121 -86.5t-55 -108.5t34 -84q29 -25 68 -10q25 13 39 29q4 4 9 12.5t9 11.5q3 3 6 3t5 -4 t2 -13q-4 -112 -80 -160q-59 -34 -129 -8q-33 15 -57 44.5t-33 66.5q-12 70 18 130.5t115 151.5l47 55q102 116 145 205t17 181q-27 112 -138 149q-63 25 -130 18t-128.5 -35t-132.5 -81q-11 -5 -13 2zM309 141q0 68 40 115t106 47q64 0 104.5 -47t40.5 -115 q0 -69 -40 -116.5t-105 -47.5q-66 0 -106 47t-40 117z" />
<glyph unicode="@" horiz-adv-x="2068" d="M154 571q-9 108 6.5 216.5t58.5 221.5t128.5 220.5t205.5 191.5q142 101 336 149.5t383.5 38.5t337.5 -73q196 -85 289 -214t120 -331q5 -54 5.5 -118t-16 -140.5t-42 -147.5t-72 -138.5t-106.5 -114.5q-83 -66 -189.5 -89.5t-189.5 7.5q-66 24 -97 66.5t-42 115.5 q-69 -111 -150 -158t-184 -45q-77 0 -154.5 38.5t-124.5 117.5q-40 69 -47.5 158.5t13 175.5t61.5 166q65 133 178 216t230 89q61 3 109 -6.5t97 -48.5t80 -109l39 127h256l-135 -475q-2 -11 -15 -57.5t-22 -84.5t-9 -80t17 -61q38 -30 109 -18q80 14 141 83.5t99 162.5 q38 94 49.5 197.5t-13 215t-88.5 199.5q-56 79 -143.5 136t-181 83.5t-172.5 37t-146 7.5q-106 -6 -199 -30.5t-186.5 -74t-176.5 -136.5t-148 -207q-96 -171 -101.5 -403t84.5 -400q52 -94 129.5 -167t165 -116t175.5 -65.5t177 -26.5q357 -24 721 201l51 -86 q-294 -189 -630.5 -228t-583.5 84q-95 47 -173 111.5t-132 136t-93 153t-60 162t-29 164.5zM881 508q0 -81 71 -131q24 -15 58.5 -14.5t66.5 14.5q50 24 95 94t72.5 151.5t44 149t20.5 105.5q12 109 -45 151q-25 19 -70 22.5t-68 -6.5q-42 -14 -81.5 -67t-68 -121 t-50.5 -140.5t-33 -127.5t-12 -80z" />
<glyph unicode="A" horiz-adv-x="1435" d="M90 12q0 5 2 8.5t8 7.5t9 7q67 77 108 168l541 1403q10 19 16 20q3 0 5 -1.5t2.5 -3.5t2 -6.5t2.5 -6.5l562 -1440q33 -69 94 -133q22 -17 20 -27q-2 -8 -22 -8h-443q-21 -3 -24 12q-1 4 1 8t4 6.5t6 6t5 4.5q17 24 27 46.5t12 45t1.5 40.5t-8 42.5t-13.5 40t-18.5 44.5 t-18.5 46l-53 121h-488l-35 -78q-29 -74 -43 -132q-10 -45 -11 -89q0 -13 1 -27q4 -58 31 -102q13 -20 10 -27q-4 -8 -33 -8h-239q-21 0 -21 12zM461 555h426l-213 551z" />
<glyph unicode="B" horiz-adv-x="1419" d="M123 18q4 7 14 11q26 11 38.5 20t28.5 31.5t22.5 64t6.5 105.5v1073q0 52 -5.5 90t-12.5 59t-22 37t-25 21.5t-31 15.5q-10 4 -14 11t2.5 12.5t21.5 5.5h562q57 0 89 -0.5t85 -3t86 -7.5t77.5 -14t76.5 -23.5t66 -34.5t61.5 -48.5t49.5 -63.5q42 -68 46 -152q1 -10 1 -20 q0 -73 -30 -137q-51 -108 -131 -161.5t-197 -86.5q342 -49 410 -276q21 -63 21 -127q0 -15 -1 -29q-11 -111 -69 -192q-26 -36 -59 -65.5t-72 -49.5t-75 -35t-83.5 -24t-81 -14.5t-83.5 -7.5t-76 -2.5t-72 -0.5h-601q-15 0 -21.5 5.5t-2.5 12.5zM523 274q0 -17 0.5 -41.5 t1.5 -37t3.5 -29.5t6 -26.5t9.5 -20.5t13.5 -18.5t17.5 -14.5q31 -20 89 -28q34 -4 68 -5q22 0 44 2q54 5 90 17q177 56 228 221q18 50 18 121q0 30 -4 66q-12 116 -55 177q-50 70 -122.5 101.5t-170.5 33.5q-38 1 -81 1q-70 0 -155 -2v-410q0 -23 -0.5 -56.5t-0.5 -50.5z M523.5 1300q0.5 -25 0.5 -28v-410h47q14 0 50.5 -1t60 -1t60.5 2t65.5 9.5t60.5 19t60.5 32t52.5 48.5q35 43 54 103q18 57 18 107v5q-1 52 -11 98q-20 71 -67 123.5t-111 75.5q-64 25 -146 27h-12q-73 0 -116 -27q-16 -11 -27.5 -24.5t-18.5 -31t-11.5 -29.5t-6.5 -34.5 t-2.5 -30.5t0 -33z" />
<glyph unicode="C" horiz-adv-x="1466" d="M120 758q1 76 7 143q12 91 43 178.5t84 175t138.5 162t195.5 123.5q160 70 340 70q22 0 44 -2q205 -10 390 -105q19 -8 23.5 -25t-3.5 -30l-106 -199q-2 -6 -11 -11.5t-18 -4.5q-11 2 -20 24q-126 243 -332 267q-31 5 -60 5q-67 -1 -129 -25q-88 -34 -174 -138 q-60 -72 -94 -182q-34 -112 -40 -224q-2 -41 -2 -80q0 -69 6 -133q10 -101 32 -172q53 -152 139.5 -241t229.5 -125q64 -15 125 -16q206 0 383 172q72 72 133 194q9 19 20.5 16.5t10.5 -22.5q-18 -86 -49.5 -163t-82.5 -154t-129.5 -138.5t-177.5 -97.5q-96 -34 -208 -36 q-4 0 -8 -1q-107 0 -219 37q-116 38 -208 113q-72 59 -126.5 140.5t-82.5 164.5q-29 84 -47 174q-17 86 -17 158v8z" />
<glyph unicode="D" horiz-adv-x="1640" d="M123 18q4 7 14 11q26 11 38.5 20t28.5 31.5t22.5 64t6.5 105.5v1073q0 52 -5.5 90t-12.5 59t-22 37t-25 21.5t-31 15.5q-10 4 -14 11t2.5 12.5t21.5 5.5h617q102 0 185 -8.5t174 -34t165 -68t145.5 -114.5t127.5 -170q84 -148 84 -367q0 -13 -1 -27q-6 -238 -102 -405 q-219 -381 -700 -381h-695q-15 0 -21.5 5.5t-2.5 12.5zM523 249.5q1 -12.5 2 -36.5t3.5 -35t7.5 -28.5t13 -27.5t19.5 -21.5t27.5 -20.5q38 -21 121 -21q40 0 91 5q155 15 230 53q79 41 138 113.5t90 154.5t46.5 153t18.5 136q3 25 3 60v38q-2 60 -6.5 126t-23.5 142 t-45.5 144.5t-74.5 132t-111 106.5q-41 28 -110 47.5t-136 26.5q-55 6 -104 6q-11 -1 -21 -1q-58 -2 -84 -11q-17 -8 -31 -16.5t-23.5 -21.5t-17 -22.5t-11.5 -28.5t-6.5 -29t-3.5 -36t-2 -37t0 -44t1 -46v-868q0 -16 -1 -48t0 -44.5z" />
<glyph unicode="E" horiz-adv-x="1370" d="M123 18q4 7 14 11q26 11 38.5 20t28.5 31.5t22.5 64t6.5 105.5v1073q0 52 -5.5 90t-12.5 59t-22 37t-25 21.5t-31 15.5q-10 4 -14 11t2.5 12.5t21.5 5.5h465h447h33h30.5t24 0.5t26 1t23.5 2t29.5 3.5t31.5 5q24 5 31 0q3 -2 6 -5.5t5 -9.5t3 -10t2.5 -13t2.5 -11 l55 -264q0 -4 1.5 -10t2.5 -10.5t1 -9t-2 -7.5t-7 -4q-6 -3 -23 14q-161 149 -371 217q-117 38 -217 38q-77 0 -143 -23q-15 -5 -27 -12t-20.5 -18t-14.5 -19.5t-9.5 -25.5t-5.5 -28t-2.5 -34.5t-1 -36.5t0 -44t0.5 -47v-352h371q73 0 128.5 9.5t87 22.5t54.5 34t31.5 35 t17.5 36q8 15 18.5 13.5t10.5 -23.5v-327q0 -16 -5 -22t-12 -2.5t-12 13.5q-9 21 -17.5 35t-32 35.5t-55 34.5t-87 22.5t-127.5 9.5h-371v-456v-23q0 -112 10 -153t56 -72q38 -25 138 -26h13q94 0 184 14q96 15 146 34q78 28 128.5 56t89.5 60.5t116 107.5q23 19 31 16 q5 -2 5 -7t-2.5 -15.5t-2.5 -14.5l-33 -145q-38 -172 -46 -186q-4 -9 -11 -11q-11 -2 -42.5 6t-91.5 17.5t-131 9.5h-934q-15 0 -21.5 5.5t-2.5 12.5z" />
<glyph unicode="F" horiz-adv-x="1275" d="M123 18q4 7 14 11q26 11 38.5 20t28.5 31.5t22.5 64t6.5 105.5v1073q0 52 -5.5 90t-12.5 59t-22 37t-25 21.5t-31 15.5q-10 4 -14 11t2.5 12.5t21.5 5.5h465h447h33h30.5t24 0.5t26 1t23.5 2t29.5 3.5t31.5 5q24 5 31 0q3 -2 6 -5.5t5 -9.5t3 -10t2.5 -13t2.5 -11 l55 -264q0 -4 1.5 -10t2.5 -10.5t1 -9t-2 -7.5t-7 -4q-6 -3 -23 14q-161 149 -371 217q-117 38 -217 38q-77 0 -143 -23q-15 -5 -27 -12t-20.5 -18t-14.5 -19.5t-9.5 -25.5t-5.5 -28t-2.5 -34.5t-1 -36.5t0 -44t0.5 -47v-399h334q73 0 128.5 9.5t87 22t55.5 34t32.5 35.5 t18.5 36q4 9 10 12.5t11 -3t5 -21.5v-326q0 -15 -5 -21.5t-11 -2.5t-10 14q-10 21 -19 35t-33 35.5t-55 34t-87 22.5t-128 10h-334v-491q0 -64 7 -105.5t23.5 -64t29.5 -31.5t39 -20q10 -4 13.5 -11t-3 -12.5t-21.5 -5.5h-465q-15 0 -21.5 5.5t-2.5 12.5z" />
<glyph unicode="G" horiz-adv-x="1687" d="M122 790q-1 16 -1 30q0 46 6 83q11 96 43.5 185.5t88 173.5t140.5 155.5t193 120.5q162 72 420 72q327 0 551 -119q20 -12 24 -25q4 -16 -10 -36l-115 -181q-12 -20 -26 -16q-12 3 -23 29q-59 95 -111 148.5t-121 85.5t-167 42q-28 3 -55 3q-85 0 -161 -28 q-100 -37 -190 -145q-62 -72 -100 -198t-48 -258q-6 -85 -6 -165q0 -44 2 -87q5 -120 25 -197q21 -75 44 -128.5t60 -106t92 -91t130 -65.5q61 -21 127 -30q29 -4 60 -4q40 0 82 6q77 12 130 50q15 11 27.5 24t22 24.5t16.5 28t12 27.5t8 31t5 30t2.5 33t0.5 32v35v34v369 q0 64 -6.5 105.5t-22.5 64t-29.5 31.5t-39.5 20q-15 7 -13.5 18t23.5 11h465q23 0 25.5 -11t-12.5 -18q-21 -9 -32 -15t-26.5 -21.5t-23 -36.5t-13.5 -58.5t-6 -89.5v-430q0 -113 13.5 -159t64.5 -62q22 -7 19 -21q-2 -10 -29 -18q-127 -47 -289 -77t-324 -30 q-190 2 -361.5 49t-289.5 140q-59 47 -106.5 108.5t-77 126t-50.5 136t-28 137t-9 128.5z" />
<glyph unicode="H" horiz-adv-x="1665" d="M123 18q4 7 14 11q26 11 38.5 20t28.5 31.5t22.5 64t6.5 105.5v1073q0 52 -5.5 90t-12.5 59t-22 37t-25 21.5t-31 15.5q-10 4 -14 11t2.5 12.5t21.5 5.5h465q15 0 21.5 -5.5t3 -12.5t-13.5 -11q-27 -13 -39 -21t-29 -31t-24 -64.5t-7 -106.5v-297h738v297q0 52 -5.5 90 t-12.5 59t-23 37t-26 21.5t-32 15.5q-15 6 -13 17.5t24 11.5h464q15 0 21.5 -5.5t3.5 -12.5t-12 -11q-23 -10 -32.5 -15.5t-26 -21.5t-23.5 -37t-13 -59t-6 -90v-1073q0 -52 6 -89.5t13.5 -58.5t23 -36.5t26.5 -21.5t32 -15q9 -4 12 -11t-3.5 -12.5t-21.5 -5.5h-464 q-22 0 -24 11.5t13 17.5q26 11 39.5 20t29.5 31.5t23 64t7 105.5v680h-738v-680q0 -64 7 -105.5t23.5 -64t29.5 -31.5t39 -20q10 -4 13.5 -11t-3 -12.5t-21.5 -5.5h-465q-15 0 -21.5 5.5t-2.5 12.5z" />
<glyph unicode="I" horiz-adv-x="628" d="M123 18q4 7 14 11q26 11 38.5 20t28.5 31.5t22.5 64t6.5 105.5v1073q0 52 -5.5 90t-12.5 59t-22 37t-25 21.5t-31 15.5q-10 4 -14 11t2.5 12.5t21.5 5.5h465q15 0 21.5 -5.5t3 -12.5t-13.5 -11q-27 -13 -39 -21t-29 -31t-24 -64.5t-7 -106.5v-1073q0 -64 7 -105.5 t23.5 -64t29.5 -31.5t39 -20q10 -4 13.5 -11t-3 -12.5t-21.5 -5.5h-465q-15 0 -21.5 5.5t-2.5 12.5z" />
<glyph unicode="J" horiz-adv-x="1060" d="M100 233v11q0 92 64 137q29 18 72 21q8 1 15 1q33 0 60 -12q17 -9 31 -19.5t23 -26.5t15.5 -27.5t11 -33.5t6.5 -32.5t5.5 -37t4.5 -34.5q3 -29 6 -45.5t10.5 -39t23 -38.5t39.5 -26q15 -7 34 -7q31 0 71 19q45 22 55 72t10 168v28v1012q0 52 -5.5 90t-12.5 59t-22.5 37 t-25.5 21.5t-32 15.5q-9 4 -12.5 11t3 12.5t21.5 5.5h465q15 0 21.5 -5.5t3 -12.5t-13.5 -11q-27 -13 -39 -21t-29 -31t-24 -64.5t-7 -106.5v-791q0 -48 -1.5 -82.5t-7 -88t-19.5 -96t-35.5 -89t-58.5 -85.5t-85 -68q-82 -50 -237 -57h-38q-127 0 -204 38q-153 83 -162 229z " />
<glyph unicode="K" horiz-adv-x="1609" d="M123 18q4 7 14 11q26 11 38.5 20t28.5 31.5t22.5 64t6.5 105.5v1073q0 52 -5.5 90t-12.5 59t-22 37t-25 21.5t-31 15.5q-10 4 -14 11t2.5 12.5t21.5 5.5h465q15 0 21.5 -5.5t3 -12.5t-13.5 -11q-27 -13 -39 -21t-29 -31t-24 -64.5t-7 -106.5v-543l498 469q10 9 33.5 30.5 t35.5 33.5t31.5 32t29.5 34.5t21 32.5t14 35t1 34q-2 26 -23 47q-10 10 -28 18q-15 8 -15 17q0 12 23 12h344h6.5h6h5t4.5 -0.5t3.5 -1t3.5 -1.5t2 -2.5t1.5 -3.5t0.5 -5q0 -6 -21 -19q-83 -53 -158 -123l-452 -430l600 -850q11 -15 22.5 -28t25.5 -25t22.5 -18.5t25.5 -18 t21 -14.5q20 -14 18 -25q-2 -10 -39 -10h-487q-15 0 -19 8q-3 9 15 23q20 15 30 33t6.5 41.5t-10 43.5t-26.5 52t-34 52t-42 58l-340 477q-27 -23 -56 -48q-31 -26 -83 -78l-5 -5l-5.5 -5.5l-6.5 -6.5v-395q0 -64 7 -105.5t23.5 -64t29.5 -31.5t39 -20q10 -4 13.5 -11 t-3 -12.5t-21.5 -5.5h-465q-15 0 -21.5 5.5t-2.5 12.5z" />
<glyph unicode="L" horiz-adv-x="1308" d="M123 18q4 7 14 11q26 11 38.5 20t28.5 31.5t22.5 64t6.5 105.5v1073q0 52 -5.5 90t-12.5 59t-22 37t-25 21.5t-31 15.5q-10 4 -14 11t2.5 12.5t21.5 5.5h465q15 0 21.5 -5.5t3 -12.5t-13.5 -11q-27 -13 -39 -21t-29 -31t-24 -64.5t-7 -106.5v-961q0 -4 -0.5 -33.5 t0 -39.5t2.5 -38t6 -41.5t12 -36.5t19 -36.5t28.5 -28t39.5 -24.5q66 -28 139 -28q94 0 202 46q191 81 376 275q19 19 28 14q13 -8 2 -45l-73 -326q-8 -37 -27 -43q-3 -1 -31 4.5t-75.5 12t-92.5 6.5h-690h-242q-15 0 -21.5 5.5t-2.5 12.5z" />
<glyph unicode="M" horiz-adv-x="2045" d="M106 12q0 10 17 21q40 26 61.5 85t36.5 146l168 1041q4 43 6 79v6q1 33 -17 71q-20 41 -63 77q-2 2 -6.5 5.5t-5.5 4t-3.5 4t-1.5 5t1 6.5q2 12 23 12h370l381 -1026l385 1026h357q18 0 18 -16q0 -7 -16 -19q-33 -26 -47 -62q-13 -33 -13 -61q0 -26 8 -82l177 -1147 q15 -85 94 -149q20 -15 18 -29q-2 -10 -18 -10h-445q-16 0 -18 10q-1 5 3.5 11t14 14t11.5 10q22 20 33 44t12 59t-1.5 58t-9.5 70l-170 1033l-493 -1309l-477 1311l-154 -989q-9 -57 -9 -104q0 -135 77 -185q17 -11 12 -25q-2 -8 -21 -8h-278q-17 0 -17 12z" />
<glyph unicode="N" horiz-adv-x="1533" d="M121 1567q3 8 29 8h344l821 -1026v774q0 52 -5.5 90t-12.5 59t-22 37t-25 21.5t-31 15.5q-10 4 -14 11t2.5 12.5t21.5 5.5h278q15 0 21.5 -5.5t3 -12.5t-13.5 -11q-27 -13 -39 -21t-29 -31t-24 -64.5t-7 -106.5v-1300q0 -13 -8.5 -21t-19.5 -10q-7 -1 -18.5 8.5 t-18.5 19.5l-8 9l-1008 1253v-1032q0 -52 5.5 -89.5t13 -58.5t22.5 -36.5t25.5 -21.5t31.5 -15q10 -4 14 -11t-2.5 -12.5t-21.5 -5.5h-279q-15 0 -21.5 5.5t-2.5 12.5t14 11q26 11 38.5 20t28.5 31.5t22.5 64t6.5 105.5v1059q0 81 -20 134.5t-76 96.5q-21 12 -16 27z" />
<glyph unicode="O" horiz-adv-x="1667" d="M127 926q14 118 61 226.5t139.5 210t219.5 165.5q108 56 256 74q38 6 82 7q11 0 23 -1q58 -2 116.5 -8.5t122 -26t122 -47t116 -71.5t104.5 -99q72 -85 117 -198q45 -112 58 -224q9 -74 8 -146q0 -36 -2 -70q-6 -104 -32 -186q-119 -416 -505 -530q-113 -34 -239 -36 q-4 0 -8 -1q-122 0 -251 40q-133 41 -232 124q-75 64 -130.5 142.5t-86 159t-48.5 167.5q-18 85 -18 163t7 165zM429 717q6 -117 28 -225.5t72 -211t124 -167.5q50 -47 119 -69q68 -22 128 -22h2q62 0 110 19q81 28 141 79.5t96 120.5t56 131t34 140q11 62 15 155q1 25 0 52 q0 72 -6 157q-10 116 -33 225t-70 208t-112 153q-57 46 -127 66q-58 17 -112 18q-10 0 -20 -1q-64 -4 -122 -25q-71 -28 -124.5 -74t-86.5 -106.5t-52 -115t-34 -124.5q-16 -76 -24 -171q-5 -54 -5 -116q0 -46 3 -96z" />
<glyph unicode="P" horiz-adv-x="1417" d="M123 18q4 7 14 11q26 11 38.5 20t28.5 31.5t22.5 64t6.5 105.5v1073q0 52 -5.5 90t-12.5 59t-22 37t-25 21.5t-31 15.5q-10 4 -14 11t2.5 12.5t21.5 5.5h353h237q100 0 184 -11t171 -38t157.5 -81.5t116.5 -133.5q50 -84 50 -213t-52 -217q-25 -44 -58 -80.5t-65.5 -62.5 t-75.5 -46.5t-76.5 -33t-81.5 -22t-77.5 -13.5t-77 -6.5t-67 -2.5h-60.5h-201v-84v-280q0 -64 7 -105.5t23.5 -64t29.5 -31.5t39 -20q10 -4 13.5 -11t-3 -12.5t-21.5 -5.5h-465q-15 0 -21.5 5.5t-2.5 12.5zM524 692h88q3 0 40 -0.5t48 0t46.5 2t52.5 5.5t49 10t52.5 16 t46 23t46.5 32t39 43q37 49 56 134q18 81 18 159v8q-1 82 -19 140q-31 96 -81 144.5t-142 80.5q-36 11 -86 17q-27 4 -57 4q-25 0 -53 -2q-60 -6 -90 -29q-37 -27 -45.5 -78.5t-8.5 -163.5v-10.5v-9.5v-11v-514z" />
<glyph unicode="Q" horiz-adv-x="1667" d="M120 750q-1 10 -1 20q0 133 43 282q46 160 143 279q46 58 103.5 105t117 77.5t124 53t124 31.5t118.5 12q17 2 34 2q38 0 71 -6q104 -13 186.5 -39t159 -74t139.5 -124.5t113 -184.5q75 -158 75 -354q0 -39 -3 -80q-18 -244 -133 -428q-85 -135 -199 -211.5t-264 -120.5 q11 -248 225 -359q41 -21 94 -33.5t81.5 -15t85.5 -5.5q11 -1 16 -1q11 -1 14.5 -4.5t1.5 -6.5l-2 -3l1 -4q-3 -5 -21 -13q-91 -25 -189 -27h-12q-94 0 -195 29q-108 31 -194 91q-105 70 -144 134.5t-73 196.5q-124 31 -211 68.5t-162.5 97.5t-129.5 147t-95 210 q-39 116 -42 258zM423 800q3 -68 7.5 -142t23 -156t44 -154.5t70.5 -137t102 -104.5q55 -38 122 -54q47 -10 93 -10q19 0 37 2q64 6 118 30q64 28 116.5 84.5t84 117t55.5 134.5t34 124.5t16 98.5q6 62 8 135v20q0 67 -9 156q-10 103 -33 194.5t-72 181t-118 144.5 q-79 61 -179 74q-28 4 -55 4q-67 0 -122 -24q-77 -29 -137.5 -85.5t-96 -119.5t-60 -140t-34 -137.5t-12.5 -122.5q-4 -30 -4 -70q0 -20 1 -43z" />
<glyph unicode="R" horiz-adv-x="1445" d="M123 18q4 7 14 11q26 11 38.5 20t28.5 31.5t22.5 64t6.5 105.5v1073q0 52 -5.5 90t-12.5 59t-22 37t-25 21.5t-31 15.5q-10 4 -14 11t2.5 12.5t21.5 5.5h658q130 0 234 -22.5t172.5 -63t111.5 -90.5t63 -109q18 -52 20 -118q0 -4 1 -9q1 -61 -19 -127q-20 -70 -63 -123 q-16 -20 -33.5 -37.5t-38.5 -32t-37 -25.5t-41.5 -21.5t-38.5 -16t-42 -13.5t-38 -11t-40.5 -10.5t-36.5 -8.5l377 -587q44 -71 100 -115q3 -2 9 -5t9 -5t5.5 -6t1.5 -9q-3 -10 -25 -10h-430q-23 0 -25 6q-1 4 0.5 7t6.5 9t6 7q14 15 20.5 30.5t5 34.5t-5 34t-15.5 38 t-20 37t-25.5 41.5t-25.5 40.5l-262 428h-162v-463q0 -64 7 -105.5t23.5 -64t29.5 -31.5t39 -20q10 -4 13.5 -11t-3 -12.5t-21.5 -5.5h-465q-15 0 -21.5 5.5t-2.5 12.5zM523.5 1267q0.5 -37 0.5 -57v-415q86 -6 156 -6q173 0 256 38q53 25 89.5 59t55 75t26.5 78.5t11 84.5 q1 11 1 22q1 76 -31 154q-36 88 -121 142q-67 44 -196 58q-41 4 -74 5q-70 0 -103 -20q-15 -8 -26.5 -18.5t-19 -19.5t-12.5 -26t-7.5 -27.5t-3.5 -36.5t-1.5 -39.5t0 -50.5z" />
<glyph unicode="S" horiz-adv-x="1269" d="M94 244q8 4 150 184q26 26 37 -20q24 -83 48.5 -138.5t63 -102.5t93 -76t130.5 -44q58 -10 118 -9h6q62 0 131 27.5t118 79.5q43 47 59 117q7 34 8 64q0 34 -9 63q-12 49 -43.5 88.5t-77.5 68t-88.5 47t-98.5 36.5l-182 65q-168 60 -230 94q-133 73 -178 196 q-15 40 -22 85q-4 29 -4 59q0 79 29 158q40 109 143 193q79 65 178.5 98t203.5 33t203 -18t197 -54q36 -14 74 -33q13 -7 17 -19.5t-1 -19.5q-11 -23 -54 -98t-56 -96q-9 -12 -17 -12q-6 0 -18 16q-68 121 -143 179t-197 69q-21 2 -42 2q-58 0 -114 -16q-76 -22 -129 -85 q-55 -69 -55 -150q0 -32 8 -65q11 -37 33.5 -67.5t46.5 -50t64 -39.5t66 -30t73 -26l153 -55q46 -15 68 -23t74 -29t83 -38t76 -46t73 -58t54.5 -68.5t38.5 -83.5q18 -54 18 -120q0 -46 -9 -98q-21 -127 -88 -212q-45 -58 -107 -99t-116.5 -61t-126.5 -30q-73 -10 -116 -12 q-26 -1 -58 -1h-46q-111 3 -261 57t-230 140q-28 28 -28 54q0 16 9 30z" />
<glyph unicode="T" horiz-adv-x="1513" d="M96.5 1264.5q0.5 2.5 0.5 5t1.5 6t1.5 4.5l66 297q6 28 20 31q10 2 35 -6t79 -17.5t126 -9.5h774q72 0 126.5 9.5t79.5 17.5t34 6q14 -2 20 -31l68 -297q5 -19 -4 -23q-6 -6 -23 11q-123 126 -253 198q-85 47 -152 47q-37 0 -68 -14q-25 -11 -40.5 -30t-21.5 -51.5 t-7 -54.5t-1 -69v-20v-1024q0 -64 7 -105.5t23.5 -64t29.5 -31.5t39 -20q10 -4 14 -11t-2.5 -12.5t-21.5 -5.5h-465q-15 0 -21.5 5.5t-3 12.5t13.5 11q26 11 38.5 20t29 31.5t23 64t6.5 105.5v1024q0 112 -8 145q-14 59 -60 80q-30 13 -65 13q-40 0 -86 -16 q-88 -30 -167.5 -89.5t-156.5 -138.5q-17 -17 -23 -11q-3 1 -4.5 3t-1 4.5z" />
<glyph unicode="U" horiz-adv-x="1507" d="M123 1557q-4 7 2.5 12.5t21.5 5.5h465q15 0 21.5 -5.5t3 -12.5t-13.5 -11q-27 -13 -39 -21t-29 -31t-24 -64.5t-7 -106.5v-811q0 -137 7 -183q23 -142 140 -214q6 -3 11 -6q82 -49 206 -49h2q126 0 206 49q41 24 73 53t53 57.5t36 66t22.5 66.5t11.5 71t5 69.5t1 70.5 v760q0 52 -6 90t-12.5 59t-22.5 37t-25.5 21.5t-31.5 15.5q-15 6 -13.5 17.5t23.5 11.5h281q22 0 23.5 -11.5t-13.5 -17.5q-22 -10 -32 -15.5t-26 -21.5t-23 -37t-13 -59t-6 -90v-748q0 -50 -1.5 -86.5t-7.5 -84t-16.5 -84.5t-29.5 -79.5t-46 -77t-66.5 -69t-90.5 -63.5 q-117 -66 -301 -66q-110 0 -216 22.5t-169 59.5q-47 27 -83 60t-59.5 63t-40 72.5t-24.5 72t-12 81t-4.5 79t-0.5 84.5v764q0 52 -5.5 90t-12.5 59t-22 37t-25 21.5t-31 15.5q-10 4 -14 11z" />
<glyph unicode="V" horiz-adv-x="1478" d="M104 1567q4 8 27 8h447q29 0 32 -12q2 -8 -20 -23q-43 -38 -43 -111q0 -63 33 -153l301 -825l305 761q41 108 41 187q0 92 -56 145q-8 8 -9 10t1 13q4 8 37 8h277q24 0 26 -12q2 -9 -14 -19q-72 -46 -121 -164l-586 -1407q-8 -20 -16 -20q-6 0 -11 6t-7 12l-517 1409 q-17 45 -48.5 90t-61.5 70q-22 15 -17 27z" />
<glyph unicode="W" horiz-adv-x="2293" d="M94 1567q4 8 29 8h446q31 0 33 -12q1 -4 -1 -7t-4.5 -5t-7.5 -5.5t-7 -5.5q-43 -38 -43 -111q0 -63 32 -153l287 -801l266 686l-80 219q-17 45 -48.5 90t-61.5 70q-21 14 -16 27q4 8 26 8h447q21 0 26 -1.5t6 -10.5q2 -8 -20 -23q-43 -38 -43 -111q0 -63 33 -153 l301 -805l305 741q41 109 41 189q0 92 -55 143q-11 11 -9 23q3 8 37 8h277q24 2 26 -12q1 -4 -2.5 -9t-7.5 -8l-4 -2q-73 -49 -121 -164l-586 -1407q-8 -20 -16 -20q-13 0 -18 18l-387 1059l-400 -1057q-7 -20 -16 -20q-12 0 -19 18l-516 1409q-17 45 -48.5 90t-61.5 70 q-22 14 -19 27z" />
<glyph unicode="X" horiz-adv-x="1488" d="M100 1559q0 16 17 16h508q26 0 28 -12q1 -4 -1 -7.5t-7 -8.5t-6 -7q-16 -17 -24.5 -34.5t-13.5 -31.5t-1 -34.5t6.5 -32.5t15.5 -37.5t20 -37t26.5 -43.5t27.5 -46l170 -274l125 166q20 27 44 63.5t62 99.5q37 64 57 118q12 35 13 58q0 13 -4 23q-11 32 -33 43 q-20 12 -14 23q4 9 10 10.5t27 1.5h244q31 0 33 -12q2 -9 -17 -23q-27 -18 -63 -67l-424 -601l424 -679q40 -67 69 -100.5t72 -59.5q21 -15 18 -23q-1 -2 -2 -3.5t-2.5 -2.5l-3 -2t-4.5 -1.5t-5 -0.5h-6h-7h-8h-9h-383h-82q-34 0 -36 6q-4 13 10 27q26 25 36 53.5t8 55 t-16.5 61.5t-30.5 63t-42 70l-15 24l-170 273l-190 -246q0 -1 -17 -23.5t-23 -30t-22.5 -31.5t-24 -37t-19.5 -35.5t-17.5 -37.5t-9 -33t-2.5 -32q9 -58 53 -96q14 -11 10 -23q-2 -8 -24 -8h-314q-18 0 -23 2t-7 8q-1 3 0 5.5t3 5t4 4t6.5 5t6.5 5.5q104 90 182 196l369 500 l-356 588q-40 67 -99 147q-19 23 -42.5 40.5t-34 22.5t-31.5 13q-2 1 -5 2t-5 2t-4.5 3t-3.5 4.5t-1 5.5z" />
<glyph unicode="Y" horiz-adv-x="1452" d="M106 1563q5 12 19 12h448q27 0 29 -8q2 -11 -14 -23q-28 -26 -37 -62q-4 -17 -4 -36q0 -21 5 -44q10 -45 23 -77.5t35 -79.5l256 -520l246 469q37 71 58 136q16 51 16 101q0 12 -1 24q-5 61 -46 89q-15 10 -13 19q2 12 29 12h289q26 0 26 -12q0 -10 -16 -21 q-77 -53 -123 -143l-422 -805v-344q0 -64 7 -105.5t23.5 -64t29.5 -31.5t39 -20q10 -4 13.5 -11t-3 -12.5t-21.5 -5.5h-465q-15 0 -21.5 5.5t-3 12.5t12.5 11q26 11 39.5 20t29.5 31.5t22.5 64t6.5 105.5v325l-401 859q-19 40 -37.5 61t-52.5 45l-9 6q-8 5 -11 8.5t-1 8.5z " />
<glyph unicode="Z" horiz-adv-x="1267" d="M106 12q-6 15 13 54l823 1439h-57h-24q-69 0 -106.5 -0.5t-106 -5t-111.5 -13t-104 -26.5t-104.5 -43t-90 -64.5t-82.5 -90.5q-6 -13 -17 -9q-8 4 -8 21l53 266q1 5 2 11t1.5 9.5t1.5 8.5l1.5 7.5t1.5 5.5t1.5 5t2 3.5l2.5 2.5t3 2q22 5 29 1t50.5 -12.5t102.5 -8.5h840 q52 0 57 -12q7 -12 -12 -50l-826 -1435q78 -10 153 -12q8 0 17 -1q68 0 146 11q88 12 166 40.5t156 82.5t139 131q2 2 9 12.5t16.5 24.5t15.5 22q2 3 5 8t4.5 7t4 4t6.5 2q10 0 10 -17l-78 -373q-2 -31 -20 -45q-11 -5 -47 1t-89 15t-89 9h-811q-41 -4 -50 12z" />
<glyph unicode="[" horiz-adv-x="772" d="M209 -297v1907h496v-68h-269v-1769h269v-70h-496z" />
<glyph unicode="\" horiz-adv-x="1114" d="M207 1452l63 29l777 -1454l-66 -29z" />
<glyph unicode="]" horiz-adv-x="772" d="M209 -227h268v1769h-268v68h496v-1907h-496v70z" />
<glyph unicode="^" horiz-adv-x="735" d="M207 1155l153 234h127l152 -234h-115l-100 105l-100 -105h-117z" />
<glyph unicode="_" horiz-adv-x="1234" d="M8 -201h1252v-82h-1252v82z" />
<glyph unicode="`" horiz-adv-x="591" d="M207 1470h186l113 -315h-94z" />
<glyph unicode="a" horiz-adv-x="1060" d="M109 236.5q0 63.5 24 115.5q78 166 506 274q12 4 18 5l39 10v170v33.5t-1.5 37t-5 30.5t-12.5 32.5t-24 24.5q-30 17 -60 17q-19 0 -38 -7q-26 -10 -42 -26.5t-22.5 -33.5t-20.5 -53t-30 -67q-19 -41 -52 -68t-73 -31h-11q-58 0 -93 39q-24 30 -24 68q0 19 6 39 q17 60 75.5 102.5t130.5 63.5q66 22 147 32q35 5 73 5q49 1 102 -7q94 -14 151 -59q16 -12 28 -29t20 -32.5t13.5 -39t8.5 -37.5t4.5 -41.5t1.5 -37.5v-38v-32v-432q0 -5 -0.5 -27t0 -28.5t2.5 -23.5t6.5 -25t12.5 -19.5t20 -19.5q20 -14 46 -14q32 0 75 20q9 4 12 -2 q2 -9 -8 -19q-49 -67 -108 -100q-56 -31 -110 -31h-7q-69 1 -103.5 33t-64.5 117q-171 -148 -326 -148q-33 0 -65 7q-139 26 -197 137q-24 52 -24 115.5zM358 254q22 -93 109 -125q29 -10 58 -10q25 -1 49 7q52 16 122 75v368q-172 -27 -272 -127q-70 -69 -70 -148 q0 -20 4 -40z" />
<glyph unicode="b" horiz-adv-x="1144" d="M117.5 1469q5.5 9 19.5 12l285 102q19 5 24 2q7 -5 7 -22v-441v-192q72 48 146 78t152 39q20 2 39 3q55 0 103 -20q170 -66 223 -268q16 -62 16 -140q0 -3 1 -6q0 -76 -14 -156q-14 -82 -49.5 -164t-86.5 -142q-85 -96 -191 -142q-91 -39 -176 -38q-15 0 -30 1 q-124 13 -248 119q-60 -44 -105 -71q-24 -19 -28 -17q-6 2 -4 21q8 70 8 100v995v129q0 26 -1.5 47.5t-2.5 38t-5.5 30.5t-6.5 23t-9 18.5t-9.5 13.5t-12 10t-11.5 7.5t-14 7.5l-14 7q-11 6 -5.5 15zM452.5 303q0.5 -13 2 -43t4.5 -47.5t9.5 -44t15.5 -43.5t23 -34t32 -28 q39 -23 84 -22q3 -1 6 -1q49 2 92 26q38 22 67.5 60t46 83t27 89t14.5 91t5 75t0 54q-2 46 -10 93t-26 102.5t-54 102t-86 71.5q-42 21 -84 21q-17 0 -35 -4q-60 -12 -133 -66v-459q0 -4 -0.5 -33.5t0 -42.5z" />
<glyph unicode="c" horiz-adv-x="989" d="M108 448v21q0 56 11 106q49 329 327 437q84 37 196 37q20 0 42 -1q138 -8 252 -67q17 -8 18 -14q2 -7 -6 -23q-42 -70 -94 -143q-9 -15 -16 -15q-12 0 -17 13q-51 87 -103 134t-128 54h-13q-95 0 -161 -96q-56 -77 -72 -243q-5 -52 -5 -96q0 -98 23 -163 q69 -172 232 -211q24 -6 50 -6q48 0 102 18q84 28 147 93q35 35 47 53q3 3 10.5 13t13 16.5t9.5 5.5q9 -3 0 -31q-71 -268 -293 -342q-67 -23 -133 -23q-161 0 -275 97q-58 50 -96 114.5t-52 129t-16 132.5z" />
<glyph unicode="d" horiz-adv-x="1155" d="M111 397q-1 22 -1 44q0 47 6 97q8 72 32 154.5t77 159t129 127.5q105 72 222 73q107 0 225 -61v260q0 58 -5 95t-17 57t-23 28t-32 18q-7 3 -11 5q-11 6 -5.5 15t19.5 12l285 102q20 5 24 2q6 -4 6 -22v-1250q0 -25 1.5 -46.5t2.5 -38t5.5 -30t6.5 -22.5t9 -18t9.5 -13.5 t11.5 -10t12 -7.5t14 -7t14 -7q12 -6 6.5 -16t-18.5 -13l-287 -100q-16 -8 -22 -4q-6 6 -6 22v96q-63 -44 -119 -72q-54 -28 -112 -42q-40 -10 -80 -10l-36 2q-58 6 -114 34q-205 97 -229 387zM365 508q5 -104 28 -170q30 -82 73 -134t109 -71q21 -6 48 -7q21 0 45 5 q54 9 88 35q30 25 37.5 48.5t7.5 64.5v364q0 8 0.5 35.5t0 39.5t-1.5 38t-4 40.5t-8 37.5t-13 38t-19.5 33t-27.5 33t-36 27q-46 24 -88 24l-2 -1q-42 0 -76 -19q-46 -22 -90 -86q-40 -56 -58 -163q-14 -84 -14 -166q0 -23 1 -46z" />
<glyph unicode="e" horiz-adv-x="1032" d="M109 469v9q-1 78 15 156q16 84 68.5 179.5t133.5 153.5q55 39 126.5 60.5t143.5 21.5q80 0 164 -31q103 -37 160 -105.5t86 -177.5q12 -46 12 -84v-3q0 -3 0.5 -6.5t0.5 -9.5v-11.5t-1 -12t-2.5 -12.5t-4 -11.5t-5.5 -9t-8 -6t-11 -2.5h-631q2 -37 10.5 -82.5t26 -102.5 t52 -106.5t79.5 -74.5q64 -33 145 -32q5 -1 11 -1q88 2 154 37q58 31 84 55.5t63 75.5q11 14 20 12q8 -3 0 -26q-67 -227 -268 -312q-59 -24 -127 -31q-21 -2 -43 -2q-48 1 -99 11q-74 16 -134 53q-117 76 -167 190t-54 238zM356 631h176h42.5h38h32t29.5 1t24 2.5t21.5 4 t17 6t16 8.5t11.5 11q16 20 16 58q0 40 -18 99q-42 130 -135 160q-25 9 -50 9q-48 0 -98 -34q-48 -36 -77 -100q-30 -64 -38 -118q-8 -49 -8 -96v-11z" />
<glyph unicode="f" horiz-adv-x="555" d="M74 952v88h135v45q0 154 12 226q28 165 121 229q58 40 160 47h17q60 0 106 -18q37 -15 63 -44t33 -67q2 -10 2 -21q0 -21 -7 -43q-9 -33 -34 -55q-39 -39 -86 -39q-13 0 -27 3q-51 7 -73 38q-11 13 -17.5 26.5t-8 20t-7.5 31.5q-7 27 -24.5 40.5t-37.5 13.5h-5 q-28 0 -56 -39q-25 -32 -27 -89v-13q0 -49 13 -89q21 -62 67.5 -114t116.5 -74q26 -8 49.5 -11t37 -3.5t52.5 -0.5v-88h-196v-702q0 -83 10 -129t25.5 -62.5t46.5 -29.5q15 -6 13 -17.5t-24 -11.5h-383q-15 0 -21.5 5.5t-3 12.5t12.5 11q31 13 46 30t24.5 62t9.5 129v702 h-135z" />
<glyph unicode="g" horiz-adv-x="1183" d="M121 -205q12 27 27 47t39 37.5t42.5 28.5t57.5 31q-50 54 -69 95q-12 28 -12 62q0 16 3 33q26 134 215 207q-103 29 -168.5 90.5t-85.5 173.5q-5 27 -5 57q0 42 9 91q16 85 68 149q55 71 148.5 111.5t209.5 40.5q78 0 142 -19.5t139 -71.5q66 68 120 95q41 20 83 20 q14 0 28 -2q63 -7 84 -59q8 -16 8 -32q0 -23 -14 -46q-32 -45 -71 -45h-3q-18 1 -28 3.5t-15.5 6t-19.5 13t-31 18.5q-25 12 -45 12q-14 0 -29.5 -11t-15.5 -32q71 -106 71 -209q0 -76 -40 -151q-53 -103 -181 -165q-116 -56 -221 -56q-10 0 -20 1q-19 2 -39.5 -11.5 t-32.5 -37.5q-9 -26 -6.5 -44.5t8.5 -26.5q42 -54 262 -54q143 0 231 -40t136 -146q23 -50 23 -109q0 -7 -1 -16q-3 -67 -37 -121q-36 -57 -103.5 -98t-145.5 -59.5t-136 -26t-108 -8.5h-11q-24 0 -67 3q-53 4 -130 15.5t-147 42t-100 74.5q-28 37 -28 80q0 28 12 59z M312 -192q-5 -17 -5 -36q0 -35 17 -75q49 -108 213 -121q17 -2 41 -2t55 2q61 3 141.5 25t110.5 63q21 27 24 61t-10 58q-8 17 -20 31.5t-22.5 25t-29.5 18.5t-30 13.5t-36.5 9.5t-36 6t-40.5 3.5t-39 2t-43 1.5q-129 5 -215 24q-60 -62 -75 -110zM427 618q6 -88 24 -129 q22 -54 54 -76t79 -22q23 0 52.5 17t51.5 53q41 68 46 221q1 20 1 38q0 124 -30 183q-20 41 -51 63.5t-66 24.5h-11q-63 0 -106 -61q-28 -40 -39 -132q-7 -60 -7 -117q0 -32 2 -63z" />
<glyph unicode="h" horiz-adv-x="1198" d="M116.5 18q3.5 7 12.5 11q31 13 46 30t24.5 62t9.5 129v1001q0 26 -1.5 47.5t-2.5 38t-5.5 30.5t-6.5 23t-9 18.5t-9.5 13.5t-12 10t-11.5 7.5t-14 7.5l-14 7q-11 6 -6 14t20 13l285 102q19 5 24 2q7 -5 7 -22v-662q129 103 263 135q52 12 101 12q79 0 152 -32 q24 -11 42.5 -29.5t31 -35t21 -45t13 -45t6.5 -51t2.5 -47t0 -48.5t-0.5 -41v-424q0 -83 10.5 -129t25.5 -62.5t46 -29.5q10 -4 14 -11t-2.5 -12.5t-21.5 -5.5h-383q-15 0 -21.5 5.5t-2.5 12.5t14 11q30 13 45 29.5t25 62.5t10 129v354q0 2 0.5 26t0 35t-2 36.5t-5 40.5 t-10 38t-15.5 38t-23.5 30.5t-32.5 25.5q-40 19 -85 19q-27 1 -57 -7q-78 -18 -161 -77v-559q0 -83 10 -129t25.5 -62.5t46.5 -29.5q15 -6 13 -17.5t-24 -11.5h-383q-15 0 -21.5 5.5t-3 12.5z" />
<glyph unicode="i" horiz-adv-x="552" d="M116.5 18q3.5 7 12.5 11q31 13 46 30t24.5 62t9.5 129v463q0 29 -1 52t-4.5 41t-5.5 31t-9.5 24t-9 16.5t-12.5 13t-13 9t-15.5 8t-15.5 7.5q-11 6 -6 14t20 13l285 102q20 5 24 3q7 -5 7 -21v-776q0 -83 10 -129t25.5 -62.5t46.5 -29.5q15 -6 13 -17.5t-24 -11.5h-383 q-15 0 -21.5 5.5t-3 12.5zM166 1384q0 66 48.5 114t115.5 48q66 0 114 -48t48 -114t-48 -113.5t-114 -47.5q-67 0 -115.5 47.5t-48.5 113.5z" />
<glyph unicode="j" horiz-adv-x="552" d="M-35 -322q0 71 62 107q26 16 61 18h8q30 0 56 -12q48 -27 57 -67q13 -63 22 -76q21 -27 49 -27q7 0 15 2q42 7 61 74q9 23 9 52q0 25 -7 55q-14 64 -57 114q-25 27 -40 41t-30.5 26t-21.5 17v711q0 29 -1 52t-4.5 41t-5.5 31t-9.5 24t-9 16.5t-12.5 13t-13 9t-15.5 8 t-15.5 7.5q-11 6 -6 14t20 13l285 102q20 5 24 3q7 -5 7 -21v-1073v-21q0 -39 -0.5 -62t-3.5 -65.5t-12 -72.5t-23 -65.5t-38 -62.5t-57 -46q-47 -30 -126 -36h-27q-61 0 -103 21q-98 57 -98 135zM166 1384q0 66 48.5 114t115.5 48q66 0 114 -48t48 -114t-48 -113.5 t-114 -47.5q-67 0 -115.5 47.5t-48.5 113.5z" />
<glyph unicode="k" horiz-adv-x="1210" d="M116.5 18q3.5 7 12.5 11q31 13 46 30t24.5 62t9.5 129v1001q0 26 -1.5 47.5t-2.5 38t-5.5 30.5t-6.5 23t-9 18.5t-9.5 13.5t-12 10t-11.5 7.5t-14 7.5l-14 7q-11 6 -5.5 15t19.5 12l285 102q19 5 24 2q7 -5 7 -22v-1006l190 156q118 97 153 138q31 37 31 73v8 q-3 21 -41 55q-17 17 -12 25q4 6 31 6h307h11.5t7 -1t3 -1t0.5 -2l1 -2q2 -8 -11 -17q-19 -11 -54 -28.5t-49.5 -27.5t-54 -42t-100.5 -88l-116 -111l380 -594q9 -14 18 -26t18 -20t14.5 -12.5t14 -10t9.5 -6.5q18 -12 15 -21q-5 -8 -21 -8h-412q-15 0 -18 8q-3 10 10 23 q17 20 26 39t9 38.5t-3 35.5t-14 38t-20 36.5t-26 40.5t-27 42l-154 244l-116 -92v-203q0 -83 10 -129t25.5 -62.5t46.5 -29.5q15 -6 13 -17.5t-24 -11.5h-383q-15 0 -21.5 5.5t-3 12.5z" />
<glyph unicode="l" horiz-adv-x="552" d="M116.5 18q3.5 7 12.5 11q31 13 46 30t24.5 62t9.5 129v1001q0 26 -1.5 47.5t-2.5 38t-5.5 30.5t-6.5 23t-9 18.5t-9.5 13.5t-12 10t-11.5 7.5t-14 7.5l-14 7q-11 6 -5.5 15t19.5 12l285 102q19 5 24 2q7 -5 7 -22v-1313q0 -83 10 -129t25.5 -62.5t46.5 -29.5 q15 -6 13 -17.5t-24 -11.5h-383q-15 0 -21.5 5.5t-3 12.5z" />
<glyph unicode="m" horiz-adv-x="1814" d="M116.5 18q3.5 7 12.5 11q31 13 46 30t24.5 62t9.5 129v467q0 25 -1.5 46.5t-2.5 38t-5.5 30.5t-6.5 23t-9 18t-9.5 13t-12 10t-11.5 7.5t-14 7.5l-14 7q-11 6 -5.5 14.5t19.5 11.5l285 103q19 5 24 2q7 -5 7 -21v-135q68 50 126.5 83t122.5 55q55 19 108 19h18 q62 -4 120 -34q44 -21 69.5 -51.5t47.5 -83.5q93 78 175 119q84 42 168 48q12 1 23 1q72 0 138 -33q38 -18 65 -51.5t40 -65.5t20 -79t7.5 -70.5t0.5 -61.5v-10v-428q0 -83 10.5 -129t25.5 -62.5t46 -29.5q10 -4 14 -11t-2.5 -12.5t-21.5 -5.5h-383q-15 0 -21.5 5.5t-3 12.5 t13.5 11q30 13 45 29.5t25 62.5t10 129v344v44.5v44t-1 37t-3.5 37t-6.5 30.5t-10.5 31t-15 24.5t-21 25t-28.5 19.5q-37 20 -81 20h-11q-50 -3 -98 -30q-76 -42 -107 -78v-549q0 -83 10.5 -129t25.5 -62.5t46 -29.5q10 -4 14 -11t-2.5 -12.5t-21.5 -5.5h-383 q-15 0 -21.5 5.5t-2.5 12.5t14 11q30 13 45 29.5t25 62.5t10 129v344v44.5v43.5t-1 37t-3.5 37.5t-6.5 30.5t-10.5 31t-15.5 24.5t-22 25t-29 19.5q-36 20 -80 20h-11q-50 -3 -100 -30q-73 -41 -104 -78v-549q0 -83 10 -129t25.5 -62.5t46.5 -29.5q15 -6 13 -17.5t-24 -11.5 h-383q-15 0 -21.5 5.5t-3 12.5z" />
<glyph unicode="n" horiz-adv-x="1218" d="M116.5 18q3.5 7 12.5 11q31 13 46 30t24.5 62t9.5 129v467q0 25 -1.5 46.5t-2.5 38t-5.5 30.5t-6.5 23t-9 18t-9.5 13t-12 10t-11.5 7.5t-14 7.5l-14 7q-11 6 -5.5 14.5t19.5 11.5l285 103q19 5 24 2q7 -5 7 -21v-135q60 45 123.5 79t131.5 56q64 21 127 20h9 q68 -2 123 -28q28 -14 49.5 -32.5t35.5 -34.5t24 -42.5t15 -42.5t7 -48t2.5 -45.5t0 -50t-0.5 -46.5v-428q0 -83 10.5 -129t26 -62.5t47.5 -29.5q9 -4 12 -11t-3.5 -12.5t-21.5 -5.5h-383q-22 0 -23.5 11.5t13.5 17.5q31 13 46 30t24.5 62t9.5 129v313v39v39.5t-1 35.5 t-2.5 36t-5 31.5t-8 32t-12 27.5t-17 27t-22 22t-28.5 21q-41 23 -90 23q-68 0 -152 -45q-55 -32 -67 -41v-561q0 -83 10 -129t25.5 -62.5t46.5 -29.5q15 -6 13 -17.5t-24 -11.5h-383q-15 0 -21.5 5.5t-3 12.5z" />
<glyph unicode="o" horiz-adv-x="1134" d="M111 565q7 76 38.5 154t92 152.5t139.5 117.5q85 43 166 53q36 5 73 5q79 0 163 -23q124 -34 214 -133q62 -72 94.5 -165t32.5 -179.5t-20 -171.5q-43 -154 -124 -243t-224 -136q-62 -21 -162 -21q-172 0 -295 99q-61 47 -102.5 109t-60.5 129q-18 66 -24 128 q-3 34 -3 68q0 28 2 57zM379 613q-1 -34 -1 -66q0 -59 4 -112q6 -82 17 -142q44 -205 150 -250q34 -14 68 -14q45 0 88 26q125 75 143 387q1 19 1 44q-1 12 -1 25q0 40 -6.5 110t-18 130t-36.5 118t-60 85q-37 30 -84 38q-20 4 -38 3q-23 0 -40 -6q-47 -18 -84 -55 q-47 -48 -73 -136.5t-29 -184.5z" />
<glyph unicode="p" horiz-adv-x="1144" d="M116.5 -435q3.5 7 12.5 11q31 14 46 30.5t24.5 62t9.5 130.5v918q0 25 -1.5 46.5t-2.5 38t-5.5 30.5t-6.5 23t-9 18t-9.5 13t-12 10t-11.5 7.5t-14 7.5l-14 7q-11 6 -5.5 14.5t19.5 11.5l285 103q19 5 24 2q7 -5 7 -21v-110q119 95 221 122q41 10 82 10q63 0 129 -24 q214 -85 245 -385q3 -25 3 -53q0 -36 -5 -79q-9 -76 -34 -161t-79.5 -167t-129.5 -134q-108 -71 -208 -71h-1q-101 1 -223 69v-246q0 -84 10 -130t25 -62.5t47 -30.5q15 -6 13 -17.5t-24 -11.5h-383q-15 0 -21.5 5.5t-3 12.5zM452 261.5q0 -12.5 1 -34t3 -31.5t5.5 -25.5 t9 -24.5t14 -21t20.5 -21.5t27 -19.5q49 -34 100 -34q32 0 64 13q36 13 66 40t49 61t30.5 65.5t18.5 63.5q12 54 16 125q1 24 1 48q0 49 -5 102q-7 78 -34.5 153t-71.5 123q-68 71 -156 71q-15 0 -30 -2q-31 -5 -80 -30q-40 -27 -47 -56v-477q0 -18 -0.5 -47t-0.5 -41.5z " />
<glyph unicode="q" horiz-adv-x="1120" d="M108 474v8q0 98 34 201q35 107 102 191q74 92 178 136q89 38 174 38q16 0 31 -1q67 -6 127 -28.5t137 -70.5l102 94q9 7 18 4t9 -16v-1220q0 -83 10.5 -129.5t26 -63.5t47.5 -31q9 -4 12.5 -10t-3 -11t-21.5 -5h-383q-15 0 -20.5 5t-2.5 11t12 10q30 14 45 31t25 63.5 t10 129.5v294q-113 -89 -200 -115q-39 -12 -84 -12q-54 0 -115 17q-99 32 -154.5 101t-87.5 177q-27 100 -29 202zM373 596q-1 -28 0.5 -58t5.5 -75t15 -87t27 -84t44.5 -77.5t64.5 -56.5q44 -25 95.5 -25t91.5 23q36 21 48.5 45t12.5 63v410q0 8 1 35.5t0.5 44.5t-2.5 45 t-7.5 48.5t-14.5 43.5t-24.5 41t-36.5 31q-40 25 -83 25q-44 0 -91 -27q-140 -85 -147 -365z" />
<glyph unicode="r" horiz-adv-x="839" d="M116.5 18q3.5 7 12.5 11q31 13 46 30t24.5 62t9.5 129v463q0 29 -1 52t-4.5 41t-5.5 31t-9.5 24t-9 16.5t-12.5 13t-13 9t-15.5 8t-15.5 7.5q-11 6 -5.5 15t19.5 12l285 102q20 5 24 3q7 -5 7 -21v-147q156 171 271 170h15q73 -7 111 -76q12 -25 12 -52q0 -29 -14 -61 q-17 -34 -47 -54.5t-62 -23.5q-6 -1 -12 -1q-34 0 -70 20l-82 49q-19 8 -43 3.5t-40 -15.5q-7 -5 -13 -11t-10 -15t-7 -15.5t-5 -19.5t-3 -21t-1 -26v-28.5v-34.5v-38v-379q0 -83 10 -129t25.5 -62.5t46.5 -29.5q15 -6 13 -17.5t-24 -11.5h-383q-15 0 -21.5 5.5t-3 12.5z " />
<glyph unicode="s" horiz-adv-x="925" d="M67 111.5q-1 10.5 9 35.5q11 25 84 117q12 15 22 15q6 0 17 -19q49 -102 114 -161t160 -72q28 -5 53 -5q90 0 146 64q30 32 40 70q5 18 5 35q0 18 -6 36q-9 34 -29 60t-52 45t-61.5 31t-72.5 26l-47 14q-65 23 -106 42t-91.5 52.5t-80 81t-38.5 109.5q-3 20 -3 39 q0 58 23 116q30 77 113 134q70 49 180 65q60 9 118 8q50 0 99 -6q107 -14 187 -49q1 -1 4.5 -2t5 -2l4.5 -3t4.5 -4t3.5 -5t2 -6q2 -9 -14 -35q-70 -105 -72 -111q-12 -16 -20 -16q-16 0 -27 14q-41 58 -71 89.5t-75 53.5t-101 23h-11q-94 0 -143 -63q-27 -37 -28 -77 q0 -19 7 -40q10 -29 31.5 -52.5t54 -41.5t57 -28t62.5 -23l51 -17q281 -95 324 -248q12 -41 13 -84q0 -31 -7 -63q-15 -76 -63 -137q-117 -152 -355 -152h-12q-79 2 -205 39.5t-190 85.5q-12 11 -13 21.5z" />
<glyph unicode="t" horiz-adv-x="661" d="M100 950q-2 4 11 17q118 97 171 166.5t130 206.5q8 14 12 22q8 15 18 12q11 -6 11 -18v-338h215v-78h-215v-557v-24v-50.5t2 -43t7 -42t13.5 -34.5t22.5 -32.5t34 -25.5q28 -15 61 -15q51 0 114 36q14 10 20 -2q2 -4 -4 -19q-20 -32 -37 -49q-32 -34 -72 -57 q-66 -43 -151 -49q-12 -1 -24 0q-70 0 -120 28q-18 10 -32.5 25t-25.5 30.5t-19.5 38.5t-13.5 40t-9 44t-6 42.5t-3 43.5t-1 38.5v36v28.5v569h-92q-15 0 -17 10z" />
<glyph unicode="u" horiz-adv-x="1167" d="M117.5 932.5q5.5 8.5 19.5 11.5l285 103q19 5 24 2q7 -5 7 -21v-590q0 -162 12 -214t70 -87q35 -23 91 -23h12q64 2 110 31q37 22 51 37.5t20 38.5v168v328q0 25 -1.5 46.5t-2.5 38t-5.5 30.5t-6.5 23t-9 18t-9.5 13t-12 10t-11.5 7.5t-14 7.5l-14 7q-11 6 -6 14.5 t18 11.5l287 103q19 5 23 2q6 -4 6 -21v-717q0 -58 5 -95t18 -56.5t23 -27t33 -17.5q6 -3 9 -4q11 -6 5.5 -16t-19.5 -13l-285 -102q-21 -5 -25 -3q-6 6 -6 23v115q-190 -139 -340 -139q-72 0 -135 32q-28 14 -50.5 36t-36.5 42t-23.5 52t-14.5 52.5t-7.5 57.5t-2.5 52.5 v51.5v21v344q0 25 -1.5 46.5t-2.5 38t-5.5 30.5t-6.5 23t-9 18t-9.5 13t-12 10t-11.5 7.5t-14 7.5l-14 7q-11 6 -5.5 14.5z" />
<glyph unicode="v" horiz-adv-x="1009" d="M74 1010q3 8 28 8h338q25 0 27 -8q2 -7 -10 -27q-21 -30 -21 -75t9.5 -78t29.5 -87q4 -11 6 -16l150 -356l145 340q42 96 42 173q0 57 -23 103q-12 15 -11 21q2 10 23 10h182h6.5h5.5h4t3 -0.5t2.5 -1t2 -1.5l1.5 -3q5 -10 -17 -29q-6 -5 -11.5 -10.5l-9.5 -9.5t-9 -12 t-7.5 -11t-8 -13.5t-7.5 -14t-9 -17.5l-9 -18l-373 -902q-7 -10 -12 -10q-10 0 -15 10l-385 924q-30 68 -57 92q-12 12 -10 19z" />
<glyph unicode="w" horiz-adv-x="1536" d="M76 1010q4 8 28 8h338q24 0 27 -8q4 -12 -8 -27q-22 -30 -22 -75q1 -3 1 -6q2 -49 12 -82t33 -93l146 -356l131 366l-68 162q-17 38 -28.5 55t-30.5 35q-12 12 -6 21q4 8 26 8h340q21 0 25 -8q5 -8 -10 -27q-17 -23 -22 -53q-2 -10 -2 -21q0 -22 7 -50q10 -41 17 -62.5 t26 -69.5l150 -356l121 340q34 89 34 162q0 63 -26 114q-10 14 -8 21q3 10 20 10h191q22 0 24 -10q1 -6 -14 -25q-23 -19 -37 -40.5t-35 -65.5l-348 -902q-4 -10 -14 -10q-3 0 -6.5 2.5t-5.5 4.5l-3 3l-272 656l-252 -656q-4 -10 -12 -10q-4 0 -7.5 2.5t-5.5 4.5l-2 3 l-385 924q-27 60 -57 90q-14 14 -10 21z" />
<glyph unicode="x" horiz-adv-x="1095" d="M100 8q-2 9 17 25q146 120 209 205l170 219l-258 432q-15 25 -32.5 43t-38.5 34t-22 17q-17 17 -12 27q6 8 31 8h356q31 0 33 -10q1 -4 -1 -8.5t-6.5 -11.5t-6.5 -11q-23 -26 -23 -50.5t19 -54.5l88 -145l32 -53q132 154 154 207q12 22 12 41.5t-6 31.5t-20 29 q-4 4 -10.5 9t-9.5 9t-1 9q2 8 31 8h190q23 0 25 -10q3 -10 -12 -19q-3 -3 -17 -13t-24.5 -20.5t-18.5 -23.5l-250 -326l291 -487q30 -50 101 -90q10 -8 10 -19q0 -10 -19 -10h-395q-29 0 -31 8q-3 15 15 23q32 11 38 48q1 8 1 16q0 29 -19 59l-153 235q-183 -231 -185 -233 q-18 -34 -18 -58v-6q3 -26 28 -61q16 -13 13 -23q0 -2 -1 -3.5t-3 -2.5t-3.5 -1.5t-4.5 -0.5h-4.5h-6h-6.5h-221h-7h-5.5h-4t-3.5 0.5t-2 1.5t-2 2.5t-1 3.5z" />
<glyph unicode="y" horiz-adv-x="1071" d="M67.5 -333.5q-3.5 33.5 8.5 59.5q34 57 96 57q47 0 86 -25q13 -9 26.5 -24t25 -23.5t28.5 -11.5h6q41 0 80 55q15 23 45.5 100t46.5 140l-61 172l-273 688q-6 15 -12 27.5t-10.5 21.5t-12.5 19t-11.5 14.5t-13.5 13.5t-12 10.5t-14.5 11.5t-13.5 11q-17 17 -12 27 q4 8 32 8h379q23 0 27 -10q2 -5 -8 -25q-24 -32 -34 -65q-5 -19 -5 -40q0 -15 3 -31q7 -38 16 -64t28 -71q4 -9 6 -14l150 -346l133 328q18 43 25.5 63.5t20 63.5t13.5 69t-7 57t-30 50q-17 17 -12 27q4 8 31 8h192q34 0 37 -10q1 -2 0 -4.5t-4 -5.5l-5.5 -5.5l-6.5 -6.5 l-7 -7q-34 -33 -54.5 -64.5t-39.5 -80.5l-377 -943q-60 -150 -92 -203q-69 -110 -185 -138q-26 -6 -54 -9q-9 -1 -18 -1q-92 0 -136 67q-17 26 -20.5 59.5z" />
<glyph unicode="z" horiz-adv-x="927" d="M94.5 27.5q1.5 5.5 9.5 19.5l498 866q9 18 2 25q-4 3 -7.5 3.5t-7 0t-9.5 0.5q-72 4 -121 4q-41 0 -65 -3q-149 -19 -253 -140l-8.5 -8.5t-7 -6.5t-5 -3.5t-5.5 -0.5q-6 2 -2 23q18 86 26 111q3 12 6.5 31t6 29.5t6 23t7 19.5t7.5 9q16 3 31 0.5t50 -7.5t62 -5h572 q30 0 35 -12q4 -11 -11 -41l-503 -859q-18 -31 -13 -36q7 -7 33 -7q37 -3 71 -3q36 0 66 4q59 6 120.5 30t118.5 74t114 129q9 9 11 -2q2 -7 -1 -19l-56 -208q-6 -19 -9.5 -36.5t-4.5 -24.5t-3.5 -12t-8.5 -7q-21 -4 -30.5 -1.5t-56.5 8t-104 5.5h-518h-7h-6h-5h-4.5t-4 0.5 t-3.5 1t-2.5 1t-2.5 1.5t-2 2.5t-2 3.5q-5 12 -3.5 17.5z" />
<glyph unicode="{" horiz-adv-x="1181" d="M209 510v106q160 21 244 76q19 13 34 28t26.5 27t20.5 30t15 28.5t10 31.5t6 29.5t3 32.5t1 30.5v32.5v31v168v21q0 70 2.5 106.5t21.5 88.5t58 93q133 147 449 152v-82q-103 -7 -201 -61q-33 -18 -57.5 -40.5t-38.5 -51t-22.5 -50.5t-12 -59t-4 -55.5t-0.5 -59.5v-151 q0 -84 -11.5 -147t-39 -109t-60.5 -76t-90 -52.5t-112 -36t-140 -28.5q73 -9 117 -17t102.5 -29.5t102.5 -55.5q38 -28 65.5 -70.5t40.5 -80.5t20 -89.5t8 -77.5t1 -65v-86q0 -77 7 -130.5t27.5 -102.5t57 -79.5t96 -52t144.5 -30.5v-86q-106 0 -190 15.5t-162 59.5 q-30 17 -54 37.5t-42 38t-31.5 43t-22 42.5t-14.5 47.5t-9 46.5t-4.5 51t-1.5 49.5v52.5v151q0 101 -19.5 166.5t-67.5 105.5t-109.5 59.5t-163.5 33.5z" />
<glyph unicode="|" horiz-adv-x="399" d="M209 -199v1905h102v-1905h-102z" />
<glyph unicode="}" horiz-adv-x="1181" d="M209 -403q107 11 174 39.5t101.5 81t46.5 115t12 159.5v86q0 39 1 65t8 77.5t20 89.5t40.5 80.5t65.5 70.5q44 34 102.5 55.5t102 29.5t116.5 17q-73 13 -122 24t-100.5 28.5t-84 39.5t-63 54t-47 74.5t-26 99t-9.5 129.5v151q0 41 -0.5 59.5t-4 55.5t-12 59t-22.5 50.5 t-38.5 51t-57.5 40.5q-98 55 -203 61v82q317 -5 450 -152q30 -32 47.5 -65t24.5 -74.5t8.5 -68t1.5 -80.5v-5v-5v-5.5v-5.5v-168q0 -105 7 -141q20 -96 110 -160q83 -54 242 -76v-106q-81 -11 -134 -25.5t-99.5 -40t-72 -64t-39.5 -96.5t-14 -139v-151q0 -140 -14 -199 q-31 -132 -164 -209q-79 -44 -162.5 -59.5t-191.5 -15.5v86z" />
<glyph unicode="~" horiz-adv-x="782" d="M207 1298q60 40 115.5 43.5t109.5 -18.5l29 -10q31 -11 45.5 -15t35.5 -6.5t35 3.5t33 18.5t41 34.5l45 -121q-11 -22 -24 -31q-19 -16 -37 -26t-40 -12.5t-36.5 -3t-43 6.5t-42 11t-49.5 16l-27 8q-36 15 -67 8.5t-76 -43.5z" />
<glyph unicode="&#xa0;" horiz-adv-x="356" d="M0 0z" />
<glyph unicode="&#xa2;" horiz-adv-x="784" d="M122.5 801q4.5 181 63.5 309q49 107 127.5 167.5t157.5 70.5v118h66v-118q100 0 206 -68q27 -15 15 -39q-4 -5 -31 -46t-31 -46q-12 -24 -22 -21q-7 3 -10 7.5t-11 23.5q-28 61 -69 92q-21 21 -47 21v-772q75 1 129 37t102 114q6 8 12 8t4 -14q-10 -117 -70 -204 t-177 -122v-131h-66v123q-111 22 -179.5 62.5t-119.5 138.5q-54 108 -49.5 289zM305 971q-22 -312 166 -453v754q-23 0 -43 -10q-18 -10 -43 -35q-33 -38 -49 -88q-12 -27 -18.5 -56t-8 -48.5t-4.5 -63.5z" />
<glyph unicode="&#xa3;" horiz-adv-x="1236" d="M119 158q-3 40 16.5 82t61.5 73q107 78 321 -12q8 5 14.5 26.5t6.5 26.5l1 4q1 5 2 11.5t2 15t1.5 18t-0.5 19.5q-3 47 -10 69t-23 48h-152l33 86h80l-43 77q-21 37 -53 90t-44.5 76t-28.5 58.5t-18 59.5t1 57t16 71q27 81 77.5 127t139.5 74q73 20 155.5 19t177.5 -34 t175 -92l55 -41q38 -38 29 -59q-5 -9 -10.5 -13.5t-14.5 -5t-14 0.5t-17 4l-16 4l-77 28q-94 33 -154 31q-44 0 -88.5 -21.5t-73.5 -64.5q-56 -83 41 -360l35 -86h80h90l-33 -86h-117q11 -107 0.5 -166.5t-45.5 -118.5q144 -15 265 7.5t237 107.5q17 12 29 10q9 -2 4 -29 q-49 -236 -57 -256q-16 -60 -27 -73t-31 -21q-72 -30 -173 -22.5t-197 35t-189 71.5q-39 -25 -78.5 -44.5t-86 -34t-85.5 -13.5t-76 16q-47 24 -78.5 64t-35.5 86zM274 152q0 -12 9.5 -24.5t25.5 -18.5q51 -23 125 47q-18 25 -63 45q-42 11 -68 -4q-29 -16 -29 -45z" />
<glyph unicode="&#xa8;" horiz-adv-x="784" d="M209 1260q0 42 31 72t73 30q43 0 74 -30t31 -72q0 -44 -31 -74.5t-74 -30.5q-42 0 -73 30.5t-31 74.5zM500 1260q0 43 29.5 72.5t72.5 29.5t74 -30t31 -72q0 -44 -31 -74.5t-74 -30.5t-72.5 30.5t-29.5 74.5z" />
<glyph unicode="&#xac;" d="M123 18q4 7 14 11q26 11 38.5 20t28.5 31.5t22.5 64t6.5 105.5v1087q0 64 -6.5 105.5t-22.5 64.5t-29 32t-38 20q-10 5 -13.5 11.5t2 11.5t21.5 5h465q16 0 22 -5t2.5 -11.5t-13.5 -11.5q-26 -11 -39 -20t-29.5 -32t-23.5 -64.5t-7 -105.5v-1026q0 -2 -0.5 -24.5t0 -31.5 t2 -31t5 -34.5t8.5 -29t14.5 -27.5t21.5 -18q64 -29 170 -17.5t179 45.5q109 47 163.5 92.5t155.5 174.5q1 1 3 2t8 3t10 -3q2 -2 2 -7.5t-1 -10.5l-1 -5l-101 -366q-7 -38 -20 -43q-8 -1 -26.5 3.5t-63 10.5t-105.5 6h-801q-15 0 -21.5 5.5t-2.5 12.5z" />
<glyph unicode="&#xad;" horiz-adv-x="782" d="M207 606l51 197h420l-45 -197h-426z" />
<glyph unicode="&#xae;" horiz-adv-x="1390" d="M123 18q4 7 14 11q26 11 38.5 20t28.5 31.5t22.5 64t6.5 105.5v1073q0 52 -5.5 90t-12.5 59t-22 37t-25 21.5t-31 15.5q-10 4 -14 11t2.5 12.5t21.5 5.5h613q69 0 140 -9t158 -32t164.5 -72.5t125.5 -120.5q36 -53 50 -122t7.5 -132t-27.5 -116q-27 -67 -72 -117.5 t-104.5 -83.5t-115 -52.5t-128.5 -37.5l-24 -8q38 -113 105 -229.5t132.5 -201.5t135.5 -162t109 -113t59 -52q71 -55 73 -57q21 -13 32.5 -23t10.5 -18q-2 -9 -47 2q-299 89 -513.5 273t-373.5 497l-36 67h-97v-405q0 -64 7 -105.5t23.5 -64t29.5 -31.5t39 -20 q10 -4 13.5 -11t-3 -12.5t-21.5 -5.5h-465q-15 0 -21.5 5.5t-2.5 12.5zM523.5 1309q0.5 -29 0.5 -37v-531h117q51 0 77 0.5t77.5 7.5t85 19.5t73 39t66.5 64.5q37 50 56 123t18 142.5t-19 122.5q-28 87 -77 136t-134 77q-57 21 -151 21.5t-142 -28.5q-14 -9 -23.5 -23.5 t-14 -26t-7 -34.5t-3 -33.5t0 -39.5z" />
<glyph unicode="&#xb4;" horiz-adv-x="614" d="M207 1155l115 315h184l-203 -315h-96z" />
<glyph unicode="&#xb7;" horiz-adv-x="497" d="M145 -428q2 2 19 -4q83 -31 137 8q78 52 78 141q0 126 -139 164l18 119h88l-22 -100q64 -13 106.5 -44t65.5 -92q17 -47 11 -100.5t-34 -93.5q-63 -90 -166 -90q-95 0 -155 71q-13 17 -7 21z" />
<glyph unicode="&#xc0;" horiz-adv-x="1435" d="M88 12q0 4 0.5 6t2.5 4.5t3.5 3.5t5 4t6.5 5q69 79 109 168l541 1403q10 19 16 20q3 0 5 -1.5t2.5 -3.5t2 -6.5t2.5 -6.5l562 -1440q33 -69 94 -133q2 -2 5.5 -4.5t6 -5t4.5 -5t3.5 -6t0.5 -6.5q-2 -8 -22 -8h-443q-21 -3 -24 12q-1 4 1 8t4 6.5t6 6t5 4.5q17 24 27 46.5 t12 45t1.5 40.5t-8 42.5t-13.5 40t-18.5 44.5t-18.5 46l-54 121h-487l-35 -78q-30 -74 -43.5 -132t-9.5 -116t31 -102q13 -20 10 -27q-4 -8 -33 -8h-239q-21 0 -21 12zM459 555h426l-213 551zM510 2089h186l113 -315h-96z" />
<glyph unicode="&#xc1;" horiz-adv-x="1435" d="M90 12q0 5 2 8.5t8 7.5t9 7q67 77 108 168l541 1403q10 19 16 20q3 0 5 -1.5t2.5 -3.5t2 -6.5t2.5 -6.5l562 -1440q33 -69 94 -133q22 -17 20 -27q-2 -8 -22 -8h-443q-21 -3 -24 12q-1 4 1 8t4 6.5t6 6t5 4.5q17 24 27 46.5t12 45t1.5 40.5t-8 42.5t-13.5 40t-18.5 44.5 t-18.5 46l-53 121h-488l-35 -78q-30 -74 -43.5 -132t-9.5 -116t31 -102q13 -20 10 -27q-4 -8 -33 -8h-239q-21 0 -21 12zM461 555h426l-213 551zM727 1774l115 315h184l-205 -315h-94z" />
<glyph unicode="&#xc2;" horiz-adv-x="1435" d="M90 12q0 5 2 8.5t8 7.5t9 7q67 77 108 168l541 1403q10 19 16 20q3 0 5 -1.5t2.5 -3.5t2 -6.5t2.5 -6.5l562 -1440q33 -69 94 -133q22 -17 20 -27q-2 -8 -22 -8h-443q-21 -3 -24 12q-1 4 1 8t4 6.5t6 6t5 4.5q17 24 27 46.5t12 45t1.5 40.5t-8 42.5t-13.5 40t-18.5 44.5 t-18.5 46l-53 121h-488l-35 -78q-30 -74 -43.5 -132t-9.5 -116t31 -102q13 -20 10 -27q-4 -8 -33 -8h-239q-21 0 -21 12zM461 555h426l-213 551zM547 1774l153 233h125l152 -233h-115l-98 104l-100 -104h-117z" />
<glyph unicode="&#xc3;" horiz-adv-x="1435" d="M94 12q0 5 2 8.5t8 7.5t9 7q67 77 108 168l541 1403q10 19 16 20q6 0 13 -18l561 -1440q33 -69 94 -133q22 -17 20 -27q-2 -8 -22 -8h-443q-21 -3 -24 12q-1 5 2 10t8 9t6 6q17 24 27 46.5t12 45t1.5 40.5t-8 42.5t-13.5 40t-18.5 44.5t-18.5 46l-53 121h-488l-35 -78 q-30 -74 -43.5 -132t-9.5 -116t31 -102q13 -20 10 -27q-4 -8 -33 -8h-239q-21 0 -21 12zM465 555h426l-211 551zM500 1917q59 40 115 43.5t110 -18.5l27 -11q39 -13 56.5 -17.5t41.5 -3.5t44 14.5t48 41.5l47 -121q-15 -23 -24 -30q-27 -24 -54.5 -34.5t-62.5 -7t-59 10 t-72 22.5l-27 9q-36 15 -66.5 8.5t-78.5 -43.5z" />
<glyph unicode="&#xc4;" horiz-adv-x="1435" d="M88 12q0 4 0.5 6t2.5 4.5t3.5 3.5t5 4t6.5 5q69 79 109 168l541 1403q10 19 16 20q3 0 5 -1.5t2.5 -3.5t2 -6.5t2.5 -6.5l562 -1440q33 -69 94 -133q2 -2 5.5 -4.5t6 -5t4.5 -5t3.5 -6t0.5 -6.5q-2 -8 -22 -8h-443q-21 -3 -24 12q-1 4 1 8t4 6.5t6 6t5 4.5q17 24 27 46.5 t12 45t1.5 40.5t-8 42.5t-13.5 40t-18.5 44.5t-18.5 46l-54 121h-487l-35 -78q-30 -74 -43.5 -132t-9.5 -116t31 -102q13 -20 10 -27q-4 -8 -33 -8h-239q-21 0 -21 12zM459 555h426l-213 551zM526 1878q0 42 30.5 72t72.5 30q43 0 73.5 -29.5t30.5 -72.5q0 -44 -30.5 -74 t-73.5 -30q-42 0 -72.5 30t-30.5 74zM815 1878q0 43 30 72.5t73 29.5t73.5 -29.5t30.5 -72.5q0 -44 -30.5 -74t-73.5 -30t-73 30t-30 74z" />
<glyph unicode="&#xc5;" horiz-adv-x="1435" d="M88 12q0 4 0.5 6t2.5 4.5t3.5 3.5t5 4t6.5 5q69 79 109 168l541 1403q10 19 16 20q3 0 5 -1.5t2.5 -3.5t2 -6.5t2.5 -6.5l562 -1440q33 -69 94 -133q2 -2 5.5 -4.5t6 -5t4.5 -5t3.5 -6t0.5 -6.5q-2 -8 -22 -8h-443q-21 -3 -24 12q-1 4 1 8t4 6.5t6 6t5 4.5q17 24 27 46.5 t12 45t1.5 40.5t-8 42.5t-13.5 40t-18.5 44.5t-18.5 46l-54 121h-487l-35 -78q-30 -74 -43.5 -132t-9.5 -116t31 -102q13 -20 10 -27q-4 -8 -33 -8h-239q-21 0 -21 12zM459 555h426l-213 551zM623 1911q0 58 41.5 97.5t99.5 39.5q57 0 95 -40t38 -99q0 -57 -40 -96t-97 -39 t-97 40.5t-40 96.5zM680 1911q0 -35 22.5 -59.5t57.5 -24.5q34 0 59 24t25 58q0 37 -23 61.5t-57 24.5t-59 -24t-25 -60z" />
<glyph unicode="&#xc6;" horiz-adv-x="2158" d="M88 8q-3 12 14 21q41 25 70 57t64 96l751 1325q-18 25 -57 39q-15 6 -13.5 17.5t23.5 11.5h465h448h32.5h30t24.5 0.5t26.5 1t23.5 2t29 3.5t31 5q24 5 33 0q16 -10 16 -49l58 -264q0 -4 1.5 -10t2 -10t0.5 -8t-1 -7t-3 -4q-11 -6 -29 12q-160 149 -370 217t-361 15 q-13 -5 -24 -12t-19 -13.5t-14 -18.5l-10 -20t-6.5 -25t-4 -27t-2 -32.5t-0.5 -34v-40v-42.5v-352h373q72 0 127.5 9.5t86.5 22t54.5 34t32 35.5t18.5 36q6 15 17.5 13.5t11.5 -23.5v-327q0 -15 -5.5 -21.5t-12.5 -3t-11 13.5q-10 22 -18.5 35.5t-32.5 35t-55 34t-86.5 22.5 t-126.5 10h-373v-456q0 -134 8 -169q12 -48 59 -79q38 -25 138.5 -26t196.5 14t145 34q111 39 168 78t168 146l5 5t4.5 5t4.5 4t5 3t5 0.5t6 -1.5q8 -4 0 -37l-32 -145q-5 -22 -13 -59q-20 -91 -27.5 -113.5t-19.5 -24.5q-12 -3 -42 5t-89.5 18t-130.5 10h-936 q-22 0 -23.5 11.5t13.5 17.5q21 9 31.5 15t25.5 21.5t22.5 36.5t13 58.5t5.5 89.5v211h-534l-56 -99q-22 -40 -30 -55.5t-25.5 -51.5t-22.5 -53.5t-11.5 -46.5t-3 -47.5t13.5 -40t28 -38.5q13 -10 10 -23q-1 -6 -37 -6h-247q-23 0 -25 8zM543 543h485v780v84z" />
<glyph unicode="&#xc7;" horiz-adv-x="1466" d="M120 758q1 76 7 143q12 91 43 178.5t84 175t138.5 162t195.5 123.5q179 78 384 68.5t390 -105.5q19 -8 23.5 -25t-3.5 -30l-106 -199q-1 -2 -3.5 -4.5t-9.5 -6.5t-14 -3q-12 2 -22 22q-39 60 -70 99.5t-71.5 78.5t-87.5 60.5t-103 28.5q-102 15 -189.5 -19.5 t-173.5 -138.5q-60 -72 -94.5 -182.5t-40 -223t4 -213.5t32.5 -172q53 -152 139.5 -241t229.5 -125q278 -66 508 156q72 72 133 194q9 19 21.5 16.5t9.5 -22.5q-18 -86 -49.5 -163t-82.5 -154t-129.5 -138.5t-177.5 -97.5q-93 -35 -172 -35l-14 -65q64 -13 106 -44t64 -92 q19 -47 13 -100.5t-34 -93.5q-63 -90 -165 -90q-50 0 -94.5 18.5t-65.5 50.5q-7 14 -4 19q4 5 20 0q92 -21 135 8q78 50 78 141q0 125 -137 164l12 84q-217 16 -385 148q-72 59 -126.5 140.5t-83 164.5t-46.5 173.5t-17 166.5z" />
<glyph unicode="&#xc8;" horiz-adv-x="1370" d="M123 18q4 7 14 11q26 11 38.5 20t28.5 31.5t22.5 64t6.5 105.5v1073q0 52 -5.5 90t-12.5 59t-22 37t-25 21.5t-31 15.5q-10 4 -14 11t2.5 12.5t21.5 5.5h465h447h33h30.5t24 0.5t26 1t23.5 2t29.5 3.5t31.5 5q24 5 31 0q3 -2 6 -5.5t5 -9.5t3 -10t2.5 -13t2.5 -11 l55 -264q0 -4 1.5 -10t2.5 -10.5t1 -9t-2 -7.5t-7 -4q-6 -3 -23 14q-162 150 -371.5 217.5t-359.5 14.5q-15 -5 -27 -12t-20.5 -18t-14.5 -19.5t-9.5 -25.5t-5.5 -28t-2.5 -34.5t-1 -36.5t0 -44t0.5 -47v-352h371q73 0 128.5 9.5t87 22.5t54.5 34t31.5 35t17.5 36 q8 15 18.5 13.5t10.5 -23.5v-327q0 -16 -5 -22t-12 -2.5t-12 13.5q-9 21 -17.5 35t-32 35.5t-55 34.5t-87 22.5t-127.5 9.5h-371v-456v-23q0 -112 10 -153t56 -72q38 -25 138.5 -26t196.5 14t146 34q78 28 128.5 56t89.5 60.5t116 107.5q23 19 31 16q5 -2 5 -7t-2.5 -15.5 t-2.5 -14.5l-33 -145q-38 -172 -46 -186q-4 -9 -11 -11q-11 -2 -42.5 6t-91.5 17.5t-131 9.5h-934q-15 0 -21.5 5.5t-2.5 12.5zM510 2089h186l113 -315h-96z" />
<glyph unicode="&#xc9;" horiz-adv-x="1370" d="M123 18q4 7 14 11q26 11 38.5 20t28.5 31.5t22.5 64t6.5 105.5v1073q0 52 -5.5 90t-12.5 59t-22 37t-25 21.5t-31 15.5q-10 4 -14 11t2.5 12.5t21.5 5.5h465h447h33h30.5t24 0.5t26 1t23.5 2t29.5 3.5t31.5 5q24 5 31 0q3 -2 6 -5.5t5 -9.5t3 -10t2.5 -13t2.5 -11 l55 -264q0 -4 1.5 -10t2.5 -10.5t1 -9t-2 -7.5t-7 -4q-6 -3 -23 14q-162 150 -371.5 217.5t-359.5 14.5q-15 -5 -27 -12t-20.5 -18t-14.5 -19.5t-9.5 -25.5t-5.5 -28t-2.5 -34.5t-1 -36.5t0 -44t0.5 -47v-352h371q73 0 128.5 9.5t87 22.5t54.5 34t31.5 35t17.5 36 q8 15 18.5 13.5t10.5 -23.5v-327q0 -16 -5 -22t-12 -2.5t-12 13.5q-9 21 -17.5 35t-32 35.5t-55 34.5t-87 22.5t-127.5 9.5h-371v-456v-23q0 -112 10 -153t56 -72q38 -25 138.5 -26t196.5 14t146 34q78 28 128.5 56t89.5 60.5t116 107.5q23 19 31 16q5 -2 5 -7t-2.5 -15.5 t-2.5 -14.5l-33 -145q-38 -172 -46 -186q-4 -9 -11 -11q-11 -2 -42.5 6t-91.5 17.5t-131 9.5h-934q-15 0 -21.5 5.5t-2.5 12.5zM618 1774l115 315h185l-205 -315h-95z" />
<glyph unicode="&#xca;" horiz-adv-x="1370" d="M120.5 18q3.5 7 12.5 11q26 11 39.5 20t29.5 31.5t22.5 64t6.5 105.5v1073q0 52 -5.5 90t-12.5 59t-22.5 37t-25.5 21.5t-32 15.5q-9 4 -12.5 11t3 12.5t21.5 5.5h465h447h33h30.5t24 0.5t25.5 1t23.5 2t29 3.5t30.5 5q27 5 33 0q3 -2 6 -5.5t5 -9.5t3 -10t2.5 -13 t2.5 -11l55 -264q0 -3 1.5 -9.5t2 -10.5t0.5 -9t-2 -8t-6 -4q-5 -2 -25 14q-160 150 -369 217.5t-360 14.5q-14 -5 -25 -12t-19 -13.5t-14 -18.5t-10.5 -20t-7 -25t-4 -26.5t-2 -32.5t-0.5 -34.5v-40v-42.5v-352h373q73 0 128.5 9.5t87 22.5t54.5 34t31.5 35t17.5 36 q8 15 18.5 13.5t10.5 -23.5v-327q0 -16 -5 -22t-12 -2.5t-12 13.5q-9 21 -17.5 35t-32 35.5t-55 34.5t-87 22.5t-127.5 9.5h-373v-456q0 -128 9.5 -171.5t58.5 -76.5q38 -25 138.5 -26t196.5 14t146 34q78 28 128.5 56t89.5 60.5t116 107.5q23 19 31 16q5 -2 5 -7 t-2.5 -15.5t-2.5 -14.5l-33 -145q-30 -136 -38.5 -165t-19.5 -32q-11 -2 -42 6t-91 17.5t-131 9.5h-934q-15 0 -21.5 5.5t-3 12.5zM547 1774l153 233h125l152 -233h-115l-98 104l-100 -104h-117z" />
<glyph unicode="&#xcb;" horiz-adv-x="1370" d="M123 18q4 7 14 11q26 11 38.5 20t28.5 31.5t22.5 64t6.5 105.5v1073q0 52 -5.5 90t-12.5 59t-22 37t-25 21.5t-31 15.5q-10 4 -14 11t2.5 12.5t21.5 5.5h465h447h33h30.5t24 0.5t26 1t23.5 2t29.5 3.5t31.5 5q24 5 31 0q3 -2 6 -5.5t5 -9.5t3 -10t2.5 -13t2.5 -11 l55 -264q0 -4 1.5 -10t2.5 -10.5t1 -9t-2 -7.5t-7 -4q-6 -3 -23 14q-162 150 -371.5 217.5t-359.5 14.5q-15 -5 -27 -12t-20.5 -18t-14.5 -19.5t-9.5 -25.5t-5.5 -28t-2.5 -34.5t-1 -36.5t0 -44t0.5 -47v-352h371q73 0 128.5 9.5t87 22.5t54.5 34t31.5 35t17.5 36 q8 15 18.5 13.5t10.5 -23.5v-327q0 -16 -5 -22t-12 -2.5t-12 13.5q-9 21 -17.5 35t-32 35.5t-55 34.5t-87 22.5t-127.5 9.5h-371v-456v-23q0 -112 10 -153t56 -72q38 -25 138.5 -26t196.5 14t146 34q78 28 128.5 56t89.5 60.5t116 107.5q23 19 31 16q5 -2 5 -7t-2.5 -15.5 t-2.5 -14.5l-33 -145q-38 -172 -46 -186q-4 -9 -11 -11q-11 -2 -42.5 6t-91.5 17.5t-131 9.5h-934q-15 0 -21.5 5.5t-2.5 12.5zM526 1878q0 42 30.5 72t72.5 30q43 0 73.5 -29.5t30.5 -72.5q0 -44 -30.5 -74t-73.5 -30q-42 0 -72.5 30t-30.5 74zM815 1878q0 43 30 72.5 t73 29.5t73.5 -29.5t30.5 -72.5q0 -44 -30.5 -74t-73.5 -30t-73 30t-30 74z" />
<glyph unicode="&#xcc;" horiz-adv-x="628" d="M123 18q4 7 14 11q26 11 38.5 20t28.5 31.5t22.5 64t6.5 105.5v1073q0 52 -5.5 90t-12.5 59t-22 37t-25 21.5t-31 15.5q-10 4 -14 11t2.5 12.5t21.5 5.5h465q15 0 21.5 -5.5t3 -12.5t-13.5 -11q-27 -13 -39 -21t-29 -31t-24 -64.5t-7 -106.5v-1073q0 -64 7 -105.5 t23.5 -64t29.5 -31.5t39 -20q10 -4 13.5 -11t-3 -12.5t-21.5 -5.5h-465q-15 0 -21.5 5.5t-2.5 12.5zM164 2089h186l113 -315h-94z" />
<glyph unicode="&#xcd;" horiz-adv-x="628" d="M123 18q4 7 14 11q26 11 38.5 20t28.5 31.5t22.5 64t6.5 105.5v1073q0 52 -5.5 90t-12.5 59t-22 37t-25 21.5t-31 15.5q-10 4 -14 11t2.5 12.5t21.5 5.5h465q15 0 21.5 -5.5t3 -12.5t-13.5 -11q-27 -13 -39 -21t-29 -31t-24 -64.5t-7 -106.5v-1073q0 -64 7 -105.5 t23.5 -64t29.5 -31.5t39 -20q10 -4 13.5 -11t-3 -12.5t-21.5 -5.5h-465q-15 0 -21.5 5.5t-2.5 12.5zM272 1774l115 315h184l-202 -315h-97z" />
<glyph unicode="&#xce;" horiz-adv-x="628" d="M123 18q4 7 14 11q26 11 38.5 20t28.5 31.5t22.5 64t6.5 105.5v1073q0 52 -5.5 90t-12.5 59t-22 37t-25 21.5t-31 15.5q-10 4 -14 11t2.5 12.5t21.5 5.5h465q15 0 21.5 -5.5t3 -12.5t-13.5 -11q-27 -13 -39 -21t-29 -31t-24 -64.5t-7 -106.5v-1073q0 -64 7 -105.5 t23.5 -64t29.5 -31.5t39 -20q10 -4 13.5 -11t-3 -12.5t-21.5 -5.5h-465q-15 0 -21.5 5.5t-2.5 12.5zM158 1774l153 233h125l152 -233h-115l-98 104l-101 -104h-116z" />
<glyph unicode="&#xcf;" horiz-adv-x="628" d="M123 18q4 7 14 11q26 11 38.5 20t28.5 31.5t22.5 64t6.5 105.5v1073q0 52 -5.5 90t-12.5 59t-22 37t-25 21.5t-31 15.5q-10 4 -14 11t2.5 12.5t21.5 5.5h465q15 0 21.5 -5.5t3 -12.5t-13.5 -11q-27 -13 -39 -21t-29 -31t-24 -64.5t-7 -106.5v-1073q0 -64 7 -105.5 t23.5 -64t29.5 -31.5t39 -20q10 -4 13.5 -11t-3 -12.5t-21.5 -5.5h-465q-15 0 -21.5 5.5t-2.5 12.5zM131 1878q0 42 31.5 72t73.5 30q43 0 73.5 -29.5t30.5 -72.5q0 -44 -30.5 -74t-73.5 -30q-42 0 -73.5 30.5t-31.5 73.5zM422 1878q0 43 29.5 72.5t72.5 29.5t74 -30t31 -72 q0 -44 -31 -74t-74 -30t-72.5 30t-29.5 74z" />
<glyph unicode="&#xd1;" horiz-adv-x="1533" d="M121 1567q3 8 29 8h344l821 -1026v774q0 52 -5.5 90t-12.5 59t-22 37t-25 21.5t-31 15.5q-10 4 -14 11t2.5 12.5t21.5 5.5h278q15 0 21.5 -5.5t3 -12.5t-13.5 -11q-27 -13 -39 -21t-29 -31t-24 -64.5t-7 -106.5v-1300q0 -13 -8.5 -21t-19.5 -10q-7 -1 -18.5 8.5 t-18.5 19.5l-8 9l-1008 1253v-1032q0 -52 5.5 -89.5t13 -58.5t22.5 -36.5t25.5 -21.5t31.5 -15q10 -4 14 -11t-2.5 -12.5t-21.5 -5.5h-279q-15 0 -21.5 5.5t-2.5 12.5t14 11q26 11 38.5 20t28.5 31.5t22.5 64t6.5 105.5v1059q0 81 -20 134.5t-76 96.5q-21 12 -16 27z M582 1917q59 40 115 43.5t110 -18.5l29 -11q31 -11 45.5 -15t35.5 -6.5t35 3.5t33 18.5t41 34.5l45 -121q-9 -17 -24 -30q-27 -24 -54.5 -34.5t-62.5 -7t-59 10t-72 22.5l-27 9q-36 15 -66.5 8.5t-78.5 -43.5z" />
<glyph unicode="&#xd2;" horiz-adv-x="1667" d="M120.5 765.5q0.5 80.5 6.5 160.5q14 118 61 226.5t139.5 210t219.5 165.5q108 56 256 74q47 8 105 6t116.5 -8.5t122 -26t122 -47t116 -71.5t104.5 -99q72 -85 117 -198t58 -224.5t6.5 -215t-32.5 -186.5q-119 -416 -505 -530q-112 -35 -238.5 -36.5t-259.5 39.5 t-232 124q-75 64 -130.5 142.5t-86 159t-48.5 167.5t-17.5 167.5zM429 717q6 -117 28 -225.5t72 -211t124 -167.5q50 -46 119 -68.5t130.5 -22t109.5 18.5q81 28 141 79.5t96 120.5t56 131t34 140q11 62 14.5 155t-6 209t-32.5 225t-70 208t-112 153q-57 46 -126.5 66.5 t-133 16.5t-121.5 -25q-71 -28 -124.5 -74t-86.5 -106.5t-52 -115t-34 -124.5q-16 -76 -24 -171t-2 -212zM705 2089h186l113 -315h-95z" />
<glyph unicode="&#xd3;" horiz-adv-x="1667" d="M120.5 765.5q0.5 80.5 6.5 160.5q14 118 61 226.5t139.5 210t219.5 165.5q108 56 256 74q47 8 105 6t116.5 -8.5t122 -26t122 -47t116 -71.5t104.5 -99q72 -85 117 -198t58 -224.5t6.5 -215t-32.5 -186.5q-119 -416 -505 -530q-112 -35 -238.5 -36.5t-259.5 39.5 t-232 124q-75 64 -130.5 142.5t-86 159t-48.5 167.5t-17.5 167.5zM429 717q6 -117 28 -225.5t72 -211t124 -167.5q50 -46 119 -68.5t130.5 -22t109.5 18.5q81 28 141 79.5t96 120.5t56 131t34 140q11 62 14.5 155t-6 209t-32.5 225t-70 208t-112 153q-57 46 -126.5 66.5 t-133 16.5t-121.5 -25q-71 -28 -124.5 -74t-86.5 -106.5t-52 -115t-34 -124.5q-16 -76 -24 -171t-2 -212zM786 1774l115 315h184l-202 -315h-97z" />
<glyph unicode="&#xd4;" horiz-adv-x="1667" d="M120.5 765.5q0.5 80.5 6.5 160.5q14 118 61 226.5t139.5 210t219.5 165.5q108 56 256 74q47 8 105 6t116.5 -8.5t122 -26t122 -47t116 -71.5t104.5 -99q72 -85 117 -198t58 -224.5t6.5 -215t-32.5 -186.5q-119 -416 -505 -530q-112 -35 -238.5 -36.5t-259.5 39.5 t-232 124q-75 64 -130.5 142.5t-86 159t-48.5 167.5t-17.5 167.5zM429 717q6 -117 28 -225.5t72 -211t124 -167.5q50 -46 119 -68.5t130.5 -22t109.5 18.5q81 28 141 79.5t96 120.5t56 131t34 140q11 62 14.5 155t-6 209t-32.5 225t-70 208t-112 153q-57 46 -126.5 66.5 t-133 16.5t-121.5 -25q-71 -28 -124.5 -74t-86.5 -106.5t-52 -115t-34 -124.5q-16 -76 -24 -171t-2 -212zM692 1774l154 233h125l151 -233h-114l-99 104l-100 -104h-117z" />
<glyph unicode="&#xd5;" horiz-adv-x="1667" d="M120.5 765.5q0.5 80.5 6.5 160.5q14 118 61 226.5t139.5 210t219.5 165.5q108 56 256 74q47 8 105 6t116.5 -8.5t122 -26t122 -47t116 -71.5t104.5 -99q72 -85 117 -198t58 -224.5t6.5 -215t-32.5 -186.5q-119 -416 -505 -530q-112 -35 -238.5 -36.5t-259.5 39.5 t-232 124q-75 64 -130.5 142.5t-86 159t-48.5 167.5t-17.5 167.5zM429 717q6 -117 28 -225.5t72 -211t124 -167.5q50 -46 119 -68.5t130.5 -22t109.5 18.5q81 28 141 79.5t96 120.5t56 131t34 140q11 62 14.5 155t-6 209t-32.5 225t-70 208t-112 153q-57 46 -126.5 66.5 t-133 16.5t-121.5 -25q-71 -28 -124.5 -74t-86.5 -106.5t-52 -115t-34 -124.5q-16 -76 -24 -171t-2 -212zM645 1917q59 40 114 43.5t109 -18.5l29 -11q31 -11 45.5 -15t35.5 -6.5t35 3.5t33 18.5t41 34.5l46 -121q-9 -19 -23 -30q-27 -24 -54.5 -34.5t-63 -6.5t-59 10 t-73.5 22l-24 9q-38 15 -68 8.5t-78 -43.5z" />
<glyph unicode="&#xd6;" horiz-adv-x="1667" d="M120.5 765.5q0.5 80.5 6.5 160.5q14 118 61 226.5t139.5 210t219.5 165.5q108 56 256 74q47 8 105 6t116.5 -8.5t122 -26t122 -47t116 -71.5t104.5 -99q72 -85 117 -198t58 -224.5t6.5 -215t-32.5 -186.5q-119 -416 -505 -530q-112 -35 -238.5 -36.5t-259.5 39.5 t-232 124q-75 64 -130.5 142.5t-86 159t-48.5 167.5t-17.5 167.5zM429 717q6 -117 28 -225.5t72 -211t124 -167.5q50 -46 119 -68.5t130.5 -22t109.5 18.5q81 28 141 79.5t96 120.5t56 131t34 140q11 62 14.5 155t-6 209t-32.5 225t-70 208t-112 153q-57 46 -126.5 66.5 t-133 16.5t-121.5 -25q-71 -28 -124.5 -74t-86.5 -106.5t-52 -115t-34 -124.5q-16 -76 -24 -171t-2 -212zM612 1878q0 42 31 72t74 30q42 0 72 -30t30 -72q0 -44 -30 -74t-72 -30q-43 0 -74 30t-31 74zM901 1878q0 42 30.5 72t72.5 30q43 0 74.5 -30t31.5 -72 q0 -44 -31.5 -74t-74.5 -30q-42 0 -72.5 30t-30.5 74z" />
<glyph unicode="&#xd8;" horiz-adv-x="1667" d="M113 785q-1 75 16.5 162t47 168t83 161t123.5 141q98 85 214.5 133t226.5 56t210 -9.5t180 -58.5l97 174h129l-117 -219q94 -65 165 -148.5t111 -171t61 -169.5t26 -164q4 -120 -30 -255t-120 -275t-211 -226q-110 -76 -255 -102.5t-279 -8.5t-250 68l-119 -221h-133 l147 278q-268 215 -315 543q-7 69 -8 144zM419 614q25 -202 111 -348l631 1170q-48 52 -118 79t-128 29q-101 3 -195.5 -50t-162.5 -155q-87 -135 -125 -329t-13 -396zM600 150q89 -89 186 -116t187 -5q133 33 209 121t125 239q45 142 57 306t-18 338t-103 310z" />
<glyph unicode="&#xd9;" horiz-adv-x="1507" d="M123 1557q-4 7 2.5 12.5t21.5 5.5h465q15 0 21.5 -5.5t3 -12.5t-13.5 -11q-27 -13 -39 -21t-29 -31t-24 -64.5t-7 -106.5v-811q0 -137 7 -183q23 -142 140 -214q6 -3 11 -6q83 -49 208.5 -48.5t205.5 48.5q41 24 73 53t53 57.5t36 66t22.5 66.5t11.5 71t5 69.5t1 70.5 v760q0 52 -6 90t-12.5 59t-22.5 37t-25.5 21.5t-31.5 15.5q-15 6 -13.5 17.5t23.5 11.5h281q22 0 23.5 -11.5t-13.5 -17.5q-22 -10 -32 -15.5t-26 -21.5t-23 -37t-13 -59t-6 -90v-748q0 -50 -1.5 -86.5t-7.5 -84t-16.5 -84.5t-29.5 -79.5t-46 -77t-66.5 -69t-90.5 -63.5 q-117 -66 -301 -66q-110 0 -216 22.5t-169 59.5q-47 27 -83 60t-59.5 63t-40 72.5t-24.5 72t-12 81t-4.5 79t-0.5 84.5v764q0 52 -5.5 90t-12.5 59t-22 37t-25 21.5t-31 15.5q-10 4 -14 11zM618 2089h187l113 -315h-97z" />
<glyph unicode="&#xda;" horiz-adv-x="1507" d="M123 1557q-4 7 2.5 12.5t21.5 5.5h465q15 0 21.5 -5.5t3 -12.5t-13.5 -11q-27 -13 -39 -21t-29 -31t-24 -64.5t-7 -106.5v-811q0 -137 7 -183q23 -142 140 -214q6 -3 11 -6q83 -49 208.5 -48.5t205.5 48.5q41 24 73 53t53 57.5t36 66t22.5 66.5t11.5 71t5 69.5t1 70.5 v760q0 52 -6 90t-12.5 59t-22.5 37t-25.5 21.5t-31.5 15.5q-15 6 -13.5 17.5t23.5 11.5h281q22 0 23.5 -11.5t-13.5 -17.5q-22 -10 -32 -15.5t-26 -21.5t-23 -37t-13 -59t-6 -90v-748q0 -50 -1.5 -86.5t-7.5 -84t-16.5 -84.5t-29.5 -79.5t-46 -77t-66.5 -69t-90.5 -63.5 q-117 -66 -301 -66q-110 0 -216 22.5t-169 59.5q-47 27 -83 60t-59.5 63t-40 72.5t-24.5 72t-12 81t-4.5 79t-0.5 84.5v764q0 52 -5.5 90t-12.5 59t-22 37t-25 21.5t-31 15.5q-10 4 -14 11zM727 1774l115 315h184l-205 -315h-94z" />
<glyph unicode="&#xdb;" horiz-adv-x="1507" d="M123 1557q-4 7 2.5 12.5t21.5 5.5h465q15 0 21.5 -5.5t3 -12.5t-13.5 -11q-27 -13 -39 -21t-29 -31t-24 -64.5t-7 -106.5v-811q0 -137 7 -183q23 -142 140 -214q6 -3 11 -6q83 -49 208.5 -48.5t205.5 48.5q41 24 73 53t53 57.5t36 66t22.5 66.5t11.5 71t5 69.5t1 70.5 v760q0 52 -6 90t-12.5 59t-22.5 37t-25.5 21.5t-31.5 15.5q-15 6 -13.5 17.5t23.5 11.5h281q22 0 23.5 -11.5t-13.5 -17.5q-22 -10 -32 -15.5t-26 -21.5t-23 -37t-13 -59t-6 -90v-748q0 -50 -1.5 -86.5t-7.5 -84t-16.5 -84.5t-29.5 -79.5t-46 -77t-66.5 -69t-90.5 -63.5 q-117 -66 -301 -66q-110 0 -216 22.5t-169 59.5q-47 27 -83 60t-59.5 63t-40 72.5t-24.5 72t-12 81t-4.5 79t-0.5 84.5v764q0 52 -5.5 90t-12.5 59t-22 37t-25 21.5t-31 15.5q-10 4 -14 11zM612 1774l154 233h125l151 -233h-114l-101 104l-98 -104h-117z" />
<glyph unicode="&#xdc;" horiz-adv-x="1507" d="M123 1557q-4 7 2.5 12.5t21.5 5.5h465q15 0 21.5 -5.5t3 -12.5t-13.5 -11q-27 -13 -39 -21t-29 -31t-24 -64.5t-7 -106.5v-811q0 -137 7 -183q23 -142 140 -214q6 -3 11 -6q83 -49 208.5 -48.5t205.5 48.5q41 24 73 53t53 57.5t36 66t22.5 66.5t11.5 71t5 69.5t1 70.5 v760q0 52 -6 90t-12.5 59t-22.5 37t-25.5 21.5t-31.5 15.5q-15 6 -13.5 17.5t23.5 11.5h281q22 0 23.5 -11.5t-13.5 -17.5q-22 -10 -32 -15.5t-26 -21.5t-23 -37t-13 -59t-6 -90v-748q0 -50 -1.5 -86.5t-7.5 -84t-16.5 -84.5t-29.5 -79.5t-46 -77t-66.5 -69t-90.5 -63.5 q-117 -66 -301 -66q-110 0 -216 22.5t-169 59.5q-47 27 -83 60t-59.5 63t-40 72.5t-24.5 72t-12 81t-4.5 79t-0.5 84.5v764q0 52 -5.5 90t-12.5 59t-22 37t-25 21.5t-31 15.5q-10 4 -14 11zM612 1878q0 42 31 72t74 30q42 0 72 -30t30 -72q0 -44 -30 -74t-72 -30 q-43 0 -74 30t-31 74zM901 1878q0 42 30.5 72t72.5 30q43 0 74.5 -30t31.5 -72q0 -44 -31.5 -74t-74.5 -30q-42 0 -72.5 30t-30.5 74z" />
<glyph unicode="&#xdf;" horiz-adv-x="1171" d="M140 18q4 7 14 11q30 13 45 29.5t24.5 62.5t9.5 129v541q0 97 5.5 165t23 142t49 130t85 111t130.5 103q93 59 211 72t207 -29q74 -36 109 -84.5t43 -120.5q18 -189 -201 -360q-56 -50 -98 -76q275 -52 354 -244q36 -80 25.5 -188.5t-68.5 -194.5q-149 -217 -442 -217 q-34 0 -70 6q-14 3 -23.5 12t-9.5 19v29q0 16 7.5 21t15.5 -1q56 -29 107 -28t102 40q35 28 54.5 97t22.5 151t2.5 127.5t-2.5 73.5q-12 85 -43.5 136.5t-111.5 82.5q-43 16 -148 29q130 69 202 153t75 199q4 114 -88 168q-28 19 -74.5 18t-83.5 -24q-23 -14 -41 -30.5 t-31 -38.5t-22.5 -39.5t-15 -45.5t-9 -44t-5 -48.5t-2 -43.5t0 -45.5t0.5 -39.5v-895q0 -39 -39 -39h-272q-15 0 -21.5 5.5t-2.5 12.5z" />
<glyph unicode="&#xe0;" horiz-adv-x="1060" d="M109 236.5q0 63.5 24 115.5q15 32 40 60.5t61 53t67.5 44t80 38t77 29.5t78.5 25.5t64.5 18.5t55.5 14l39 10v166v33.5t-1.5 37t-5 30.5t-12.5 32.5t-24 24.5q-50 28 -98 10q-26 -10 -42 -26.5t-22.5 -33.5t-20.5 -53t-30 -67q-19 -41 -52 -68t-73 -31q-66 -4 -104 39 q-36 45 -18 107q17 60 75.5 102.5t130.5 63.5q66 22 147 32.5t175 -3t151 -58.5q16 -12 28 -29t20 -32.5t13.5 -39t8.5 -37.5t4.5 -41.5t1.5 -37.5v-38v-32v-432q0 -5 -0.5 -27t0 -28.5t2.5 -23.5t6.5 -25t12.5 -19.5t20 -19.5q43 -30 121 6q9 4 12 -2q2 -9 -8 -19 q-49 -67 -108 -100t-117 -31q-69 1 -103.5 33t-64.5 117q-207 -179 -391 -141q-139 26 -197 137q-24 52 -24 115.5zM358 254q22 -93 109 -125q56 -18 107.5 -0.5t121.5 76.5v354q-103 -19 -164.5 -45t-107.5 -72q-88 -86 -66 -188zM389 1464h186l113 -315h-96z" />
<glyph unicode="&#xe1;" horiz-adv-x="1060" d="M109 236.5q0 63.5 24 115.5q15 32 40 60.5t61 53t67.5 44t80 38t77 29.5t78.5 25.5t64.5 18.5t55.5 14l39 10v166v33.5t-1.5 37t-5 30.5t-12.5 32.5t-24 24.5q-50 28 -98 10q-26 -10 -42 -26.5t-22.5 -33.5t-20.5 -53t-30 -67q-19 -41 -52 -68t-73 -31q-66 -4 -104 39 q-36 45 -18 107q17 60 75.5 102.5t130.5 63.5q66 22 147 32.5t175 -3t151 -58.5q16 -12 28 -29t20 -32.5t13.5 -39t8.5 -37.5t4.5 -41.5t1.5 -37.5v-38v-32v-432q0 -5 -0.5 -27t0 -28.5t2.5 -23.5t6.5 -25t12.5 -19.5t20 -19.5q43 -30 121 6q9 4 12 -2q2 -9 -8 -19 q-49 -67 -108 -100t-117 -31q-69 1 -103.5 33t-64.5 117q-207 -179 -391 -141q-139 26 -197 137q-24 52 -24 115.5zM358 254q22 -93 109 -125q56 -18 107.5 -0.5t121.5 76.5v354q-103 -19 -164.5 -45t-107.5 -72q-88 -86 -66 -188zM475 1155l115 315h184l-203 -315h-96z" />
<glyph unicode="&#xe2;" horiz-adv-x="1060" d="M109 236.5q0 63.5 24 115.5q15 32 40 60.5t61 53t67.5 44t80 38t77 29.5t78.5 25.5t64.5 18.5t55.5 14l39 10v166v33.5t-1.5 37t-5 30.5t-12.5 32.5t-24 24.5q-50 28 -98 10q-26 -10 -42 -26.5t-22.5 -33.5t-20.5 -53t-30 -67q-19 -41 -52 -68t-73 -31q-66 -4 -104 39 q-36 45 -18 107q17 60 75.5 102.5t130.5 63.5q66 22 147 32.5t175 -3t151 -58.5q16 -12 28 -29t20 -32.5t13.5 -39t8.5 -37.5t4.5 -41.5t1.5 -37.5v-38v-32v-432q0 -5 -0.5 -27t0 -28.5t2.5 -23.5t6.5 -25t12.5 -19.5t20 -19.5q43 -30 121 6q9 4 12 -2q2 -9 -8 -19 q-49 -67 -108 -100t-117 -31q-69 1 -103.5 33t-64.5 117q-207 -179 -391 -141q-139 26 -197 137q-24 52 -24 115.5zM358 254q22 -93 109 -125q56 -18 107.5 -0.5t121.5 76.5v354q-103 -19 -164.5 -45t-107.5 -72q-88 -86 -66 -188zM391 1155l154 234h125l151 -234h-114 l-99 105l-100 -105h-117z" />
<glyph unicode="&#xe3;" horiz-adv-x="1060" d="M109 236.5q0 63.5 24 115.5q15 32 40 60.5t61 53t67.5 44t80 38t77 29.5t78.5 25.5t64.5 18.5t55.5 14l39 10v166v33.5t-1.5 37t-5 30.5t-12.5 32.5t-24 24.5q-50 28 -98 10q-26 -10 -42 -26.5t-22.5 -33.5t-20.5 -53t-30 -67q-19 -41 -52 -68t-73 -31q-66 -4 -104 39 q-36 45 -18 107q17 60 75.5 102.5t130.5 63.5q66 22 147 32.5t175 -3t151 -58.5q16 -12 28 -29t20 -32.5t13.5 -39t8.5 -37.5t4.5 -41.5t1.5 -37.5v-38v-32v-432q0 -5 -0.5 -27t0 -28.5t2.5 -23.5t6.5 -25t12.5 -19.5t20 -19.5q43 -30 121 6q9 4 12 -2q2 -9 -8 -19 q-49 -67 -108 -100t-117 -31q-69 1 -103.5 33t-64.5 117q-207 -179 -391 -141q-139 26 -197 137q-24 52 -24 115.5zM358 254q22 -93 109 -125q56 -18 107.5 -0.5t121.5 76.5v354q-103 -19 -164.5 -45t-107.5 -72q-88 -86 -66 -188zM365 1300q60 40 115.5 43.5t109.5 -18.5 l28 -10q50 -17 72.5 -21t52.5 8t66 48l45 -121q-14 -23 -25 -31q-18 -16 -36 -26t-39.5 -12.5t-36.5 -3t-43.5 6.5t-42 11t-49.5 16l-27 8q-37 16 -67 9t-76 -44z" />
<glyph unicode="&#xe4;" horiz-adv-x="1060" d="M109 236.5q0 63.5 24 115.5q15 32 40 60.5t61 53t67.5 44t80 38t77 29.5t78.5 25.5t64.5 18.5t55.5 14l39 10v166v33.5t-1.5 37t-5 30.5t-12.5 32.5t-24 24.5q-50 28 -98 10q-26 -10 -42 -26.5t-22.5 -33.5t-20.5 -53t-30 -67q-19 -41 -52 -68t-73 -31q-66 -4 -104 39 q-36 45 -18 107q17 60 75.5 102.5t130.5 63.5q66 22 147 32.5t175 -3t151 -58.5q16 -12 28 -29t20 -32.5t13.5 -39t8.5 -37.5t4.5 -41.5t1.5 -37.5v-38v-32v-432q0 -5 -0.5 -27t0 -28.5t2.5 -23.5t6.5 -25t12.5 -19.5t20 -19.5q43 -30 121 6q9 4 12 -2q2 -9 -8 -19 q-49 -67 -108 -100t-117 -31q-69 1 -103.5 33t-64.5 117q-207 -179 -391 -141q-139 26 -197 137q-24 52 -24 115.5zM356 1260q0 42 31 72t74 30q42 0 73 -30t31 -72q0 -44 -31 -74.5t-73 -30.5q-43 0 -74 30.5t-31 74.5zM358 254q22 -93 109 -125q56 -18 107.5 -0.5 t121.5 76.5v354q-103 -19 -164.5 -45t-107.5 -72q-88 -86 -66 -188zM647 1260q0 42 29.5 72t71.5 30q44 0 75 -29.5t31 -72.5q0 -44 -31 -74.5t-75 -30.5q-42 0 -71.5 30.5t-29.5 74.5z" />
<glyph unicode="&#xe5;" horiz-adv-x="1060" d="M109 236.5q0 63.5 24 115.5q15 32 40 60.5t61 53t67.5 44t80 38t77 29.5t78.5 25.5t64.5 18.5t55.5 14l39 10v166v33.5t-1.5 37t-5 30.5t-12.5 32.5t-24 24.5q-50 28 -98 10q-26 -10 -42 -26.5t-22.5 -33.5t-20.5 -53t-30 -67q-19 -41 -52 -68t-73 -31q-66 -4 -104 39 q-36 45 -18 107q17 60 75.5 102.5t130.5 63.5q66 22 147 32.5t175 -3t151 -58.5q16 -12 28 -29t20 -32.5t13.5 -39t8.5 -37.5t4.5 -41.5t1.5 -37.5v-38v-32v-432q0 -5 -0.5 -27t0 -28.5t2.5 -23.5t6.5 -25t12.5 -19.5t20 -19.5q43 -30 121 6q9 4 12 -2q2 -9 -8 -19 q-49 -67 -108 -100t-117 -31q-69 1 -103.5 33t-64.5 117q-207 -179 -391 -141q-139 26 -197 137q-24 52 -24 115.5zM358 254q22 -93 109 -125q56 -18 107.5 -0.5t121.5 76.5v354q-103 -19 -164.5 -45t-107.5 -72q-88 -86 -66 -188zM434 1292q0 58 41.5 98t99.5 40 q57 0 95.5 -40.5t38.5 -99.5q0 -57 -40.5 -96t-97.5 -39t-97 40.5t-40 96.5zM492 1292q0 -34 23 -59t56 -25q34 0 59 24t25 58q0 37 -23 61.5t-57 24.5t-58.5 -24t-24.5 -60z" />
<glyph unicode="&#xe6;" horiz-adv-x="1658" d="M109 236.5q0 63.5 24 115.5q15 32 40 60.5t61 53t67.5 44t80 38t77 29.5t78.5 25.5t64.5 18.5t55.5 14l39 10v166q0 3 0.5 27.5t0 31t-3 26t-7 29t-13 22.5t-20.5 22q-50 28 -98 10q-26 -10 -42 -26.5t-22.5 -33.5t-20.5 -53t-30 -67q-20 -43 -53 -71t-72 -28 q-70 0 -104 39q-36 45 -18 107q17 60 75.5 102.5t130.5 63.5q66 22 147 32.5t175 -3t151 -58.5q14 -12 41 -51q18 21 41 35q114 82 271 82q88 0 164 -29q104 -37 159 -104.5t84 -180.5q2 -9 6 -26t6 -30t3 -28q3 -57 -7 -72q-8 -12 -26 -12h-631q0 -34 8.5 -82t26.5 -104 t53 -105.5t80 -74.5q69 -35 157 -32.5t152 36.5q59 32 86.5 57t63.5 74q9 14 18 12q8 -3 0 -26q-67 -227 -268 -312q-59 -24 -127.5 -31t-142.5 8.5t-134 53.5q-92 57 -155 164q-49 -52 -80 -80q-207 -179 -391 -141q-139 26 -197 137q-24 52 -24 115.5zM358 254 q22 -93 109 -125q56 -18 107.5 -0.5t121.5 76.5v354q-103 -19 -164.5 -45t-107.5 -72q-88 -86 -66 -188zM983 631h176h42.5h38.5h32.5t29 1t23.5 2.5t22 4t17 6t15.5 8.5t11.5 11q33 40 -2 157q-42 130 -136 160q-72 27 -145 -25q-49 -36 -79 -100t-38 -117t-8 -108z" />
<glyph unicode="&#xe7;" horiz-adv-x="989" d="M108.5 447.5q-2.5 68.5 10.5 127.5q49 329 327 437q99 44 237.5 36t252.5 -67q17 -8 18 -14q1 -3 -0.5 -8.5t-3.5 -10.5l-2 -4l-94 -143q-6 -15 -14 -15q-14 0 -19 13q-48 86 -101 133.5t-130 54.5q-108 0 -174 -96q-57 -77 -72.5 -242.5t18.5 -259.5q69 -172 232 -211 q67 -16 151.5 12.5t147.5 92.5q25 25 45 55q3 3 9.5 12t12 14.5t9.5 4.5q3 -1 5 -3t2 -5.5v-6t-1.5 -7.5t-1.5 -7q-71 -268 -293 -342q-61 -21 -88 -21l-14 -77q64 -13 106 -44t64 -92q19 -47 13 -100.5t-34 -93.5q-63 -90 -168 -90q-95 0 -156 69q-1 2 -2.5 4.5t-3.5 8.5 t2 8q2 2 6.5 1.5t8.5 -1.5l4 -2q80 -31 135 8q78 50 78 141q0 125 -137 164l14 96q-123 0 -236 95q-58 50 -96 114.5t-51.5 128.5t-16 132.5z" />
<glyph unicode="&#xe8;" horiz-adv-x="1032" d="M109 469q-1 81 15.5 164.5t68.5 179.5t133 154q55 39 126.5 60.5t143.5 21.5q80 0 164 -31q103 -37 160 -105.5t86 -177.5q12 -46 12 -84v-3q0 -3 0.5 -6.5t0.5 -9.5v-11.5t-1 -12t-2.5 -12.5t-4 -11.5t-5.5 -9t-8 -6t-11 -2.5h-631q2 -37 10.5 -82.5t26 -102.5 t52 -106.5t79.5 -74.5q69 -35 156.5 -32.5t153.5 36.5q58 31 84 55.5t63 75.5q11 14 20 12q8 -3 0 -26q-67 -227 -268 -312q-59 -24 -127 -31t-142 8.5t-134 53.5q-117 76 -167 190t-54 238zM356 631h176h42.5h38h32t29.5 1t24 2.5t21.5 4t17 6t16 8.5t11.5 11q32 42 -2 157 q-42 130 -135 160q-72 27 -148 -25q-48 -36 -77.5 -99.5t-38 -118t-7.5 -107.5zM455 1464h186l111 -315h-95z" />
<glyph unicode="&#xe9;" horiz-adv-x="1032" d="M109 469q-1 81 15.5 164.5t68.5 179.5t133 154q55 39 126.5 60.5t143.5 21.5q80 0 164 -31q103 -37 160 -105.5t86 -177.5q12 -46 12 -84v-3q0 -3 0.5 -6.5t0.5 -9.5v-11.5t-1 -12t-2.5 -12.5t-4 -11.5t-5.5 -9t-8 -6t-11 -2.5h-631q2 -37 10.5 -82.5t26 -102.5 t52 -106.5t79.5 -74.5q69 -35 156.5 -32.5t153.5 36.5q58 31 84 55.5t63 75.5q11 14 20 12q8 -3 0 -26q-67 -227 -268 -312q-59 -24 -127 -31t-142 8.5t-134 53.5q-117 76 -167 190t-54 238zM356 631h176h42.5h38h32t29.5 1t24 2.5t21.5 4t17 6t16 8.5t11.5 11q32 42 -2 157 q-42 130 -135 160q-72 27 -148 -25q-48 -36 -77.5 -99.5t-38 -118t-7.5 -107.5zM475 1155l115 315h184l-203 -315h-96z" />
<glyph unicode="&#xea;" horiz-adv-x="1032" d="M109 469q-1 81 15.5 164.5t68.5 179.5t133 154q55 39 126.5 60.5t143.5 21.5q80 0 164 -31q103 -37 160 -105.5t86 -177.5q12 -46 12 -84v-3q0 -3 0.5 -6.5t0.5 -9.5v-11.5t-1 -12t-2.5 -12.5t-4 -11.5t-5.5 -9t-8 -6t-11 -2.5h-631q2 -37 10.5 -82.5t26 -102.5 t52 -106.5t79.5 -74.5q69 -35 156.5 -32.5t153.5 36.5q58 31 84 55.5t63 75.5q11 14 20 12q8 -3 0 -26q-67 -227 -268 -312q-59 -24 -127 -31t-142 8.5t-134 53.5q-117 76 -167 190t-54 238zM356 631h176h42.5h38h32t29.5 1t24 2.5t21.5 4t17 6t16 8.5t11.5 11q32 42 -2 157 q-42 130 -135 160q-72 27 -148 -25q-48 -36 -77.5 -99.5t-38 -118t-7.5 -107.5zM397 1155l154 234h127l149 -234h-114l-99 105l-100 -105h-117z" />
<glyph unicode="&#xeb;" horiz-adv-x="1032" d="M109 469q-1 81 15.5 164.5t68.5 179.5t133 154q55 39 126.5 60.5t143.5 21.5q80 0 164 -31q103 -37 160 -105.5t86 -177.5q12 -46 12 -84v-3q0 -3 0.5 -6.5t0.5 -9.5v-11.5t-1 -12t-2.5 -12.5t-4 -11.5t-5.5 -9t-8 -6t-11 -2.5h-631q2 -37 10.5 -82.5t26 -102.5 t52 -106.5t79.5 -74.5q69 -35 156.5 -32.5t153.5 36.5q58 31 84 55.5t63 75.5q11 14 20 12q8 -3 0 -26q-67 -227 -268 -312q-59 -24 -127 -31t-142 8.5t-134 53.5q-117 76 -167 190t-54 238zM356 631h176h42.5h38h32t29.5 1t24 2.5t21.5 4t17 6t16 8.5t11.5 11q32 42 -2 157 q-42 130 -135 160q-72 27 -148 -25q-48 -36 -77.5 -99.5t-38 -118t-7.5 -107.5zM356 1260q0 42 31 72t74 30q42 0 73 -30t31 -72q0 -44 -31 -74.5t-73 -30.5q-43 0 -74 30.5t-31 74.5zM647 1260q0 42 29.5 72t71.5 30q44 0 75 -29.5t31 -72.5q0 -44 -31 -74.5t-75 -30.5 q-42 0 -71.5 30.5t-29.5 74.5z" />
<glyph unicode="&#xec;" horiz-adv-x="552" d="M116.5 18q3.5 7 12.5 11q31 13 46 30t24.5 62t9.5 129v463q0 29 -1 52t-4.5 41t-5.5 31t-9.5 24t-9 16.5t-12.5 13t-13 9t-15.5 8t-15.5 7.5q-11 6 -5.5 15t19.5 12l285 102q20 5 24 3q7 -5 7 -21v-776q0 -83 10 -129t25.5 -62.5t46.5 -29.5q15 -6 13 -17.5t-24 -11.5 h-383q-15 0 -21.5 5.5t-3 12.5zM121 1470h186l113 -315h-96z" />
<glyph unicode="&#xed;" horiz-adv-x="552" d="M116.5 18q3.5 7 12.5 11q31 13 46 30t24.5 62t9.5 129v463q0 29 -1 52t-4.5 41t-5.5 31t-9.5 24t-9 16.5t-12.5 13t-13 9t-15.5 8t-15.5 7.5q-11 6 -5.5 15t19.5 12l285 102q20 5 24 3q7 -5 7 -21v-776q0 -83 10 -129t25.5 -62.5t46.5 -29.5q15 -6 13 -17.5t-24 -11.5 h-383q-15 0 -21.5 5.5t-3 12.5zM186 1155l115 315h184l-204 -315h-95z" />
<glyph unicode="&#xee;" horiz-adv-x="552" d="M90 1155l154 234h127l149 -234h-112l-101 105l-100 -105h-117zM116.5 18q3.5 7 12.5 11q31 13 46 30t24.5 62t9.5 129v463q0 29 -1 52t-4.5 41t-5.5 31t-9.5 24t-9 16.5t-12.5 13t-13 9t-15.5 8t-15.5 7.5q-11 6 -5.5 15t19.5 12l285 102q20 5 24 3q7 -5 7 -21v-776 q0 -83 10 -129t25.5 -62.5t46.5 -29.5q15 -6 13 -17.5t-24 -11.5h-383q-15 0 -21.5 5.5t-3 12.5z" />
<glyph unicode="&#xef;" horiz-adv-x="552" d="M61 1260q0 42 30.5 72t72.5 30q43 0 73.5 -29.5t30.5 -72.5q0 -44 -30.5 -74.5t-73.5 -30.5q-42 0 -72.5 30.5t-30.5 74.5zM116.5 18q3.5 7 12.5 11q31 13 46 30t24.5 62t9.5 129v463q0 29 -1 52t-4.5 41t-5.5 31t-9.5 24t-9 16.5t-12.5 13t-13 9t-15.5 8t-15.5 7.5 q-11 6 -5.5 15t19.5 12l285 102q20 5 24 3q7 -5 7 -21v-776q0 -83 10 -129t25.5 -62.5t46.5 -29.5q15 -6 13 -17.5t-24 -11.5h-383q-15 0 -21.5 5.5t-3 12.5zM350 1260q0 43 30 72.5t73 29.5t73.5 -29.5t30.5 -72.5q0 -44 -30.5 -74.5t-73.5 -30.5t-73 30.5t-30 74.5z" />
<glyph unicode="&#xf1;" horiz-adv-x="1218" d="M116.5 18q3.5 7 12.5 11q31 13 46 30t24.5 62t9.5 129v467q0 25 -1.5 46.5t-2.5 38t-5.5 30.5t-6.5 23t-9 18t-9.5 13t-12 10t-11.5 7.5t-14 7.5l-14 7q-11 6 -5.5 14.5t19.5 11.5l285 103q19 5 24 2q7 -5 7 -21v-135q60 45 123.5 79t131.5 56t136 20.5t123 -28.5 q28 -14 49.5 -32.5t35.5 -34.5t24 -42.5t15 -42.5t7 -48t2.5 -45.5t0 -50t-0.5 -46.5v-428q0 -83 10.5 -129t26 -62.5t47.5 -29.5q9 -4 12 -11t-3.5 -12.5t-21.5 -5.5h-383q-22 0 -23.5 11.5t13.5 17.5q31 13 46 30t24.5 62t9.5 129v313v39v39.5t-1 35.5t-2.5 36t-5 31.5 t-8 32t-12 27.5t-17 27t-22 22t-28.5 21q-98 56 -242 -22q-55 -32 -67 -41v-561q0 -83 10 -129t25.5 -62.5t46.5 -29.5q15 -6 13 -17.5t-24 -11.5h-383q-15 0 -21.5 5.5t-3 12.5zM391 1300q59 40 115 43.5t110 -18.5l29 -10q50 -17 72.5 -21t52.5 8t66 48l45 -121 q-12 -20 -25 -31q-22 -19 -46.5 -29t-43.5 -12.5t-50.5 3.5t-49.5 11.5t-58 18.5l-26 8q-37 16 -67.5 9t-78.5 -44z" />
<glyph unicode="&#xf2;" horiz-adv-x="1134" d="M111 565q7 76 38.5 154t92 152.5t139.5 117.5q85 43 166 53q112 16 236 -18t214 -133q62 -72 94.5 -165t32.5 -179.5t-20 -171.5q-43 -154 -124 -243t-224 -136q-62 -21 -162 -21q-172 0 -295 99q-61 47 -102.5 109t-60 129t-24.5 128.5t-1 124.5zM379 613 q-3 -96 2.5 -178t17.5 -142q44 -205 150 -250q81 -34 156 12q125 75 143 387q1 29 0.5 69t-7 110t-18 130t-36.5 118t-60 85q-37 29 -84 37.5t-78 -2.5q-47 -18 -84 -55q-47 -48 -73 -136.5t-29 -184.5zM457 1464h186l113 -315h-97z" />
<glyph unicode="&#xf3;" horiz-adv-x="1134" d="M111 565q7 76 38.5 154t92 152.5t139.5 117.5q85 43 166 53q112 16 236 -18t214 -133q62 -72 94.5 -165t32.5 -179.5t-20 -171.5q-43 -154 -124 -243t-224 -136q-62 -21 -162 -21q-172 0 -295 99q-61 47 -102.5 109t-60 129t-24.5 128.5t-1 124.5zM379 613 q-3 -96 2.5 -178t17.5 -142q44 -205 150 -250q81 -34 156 12q125 75 143 387q1 29 0.5 69t-7 110t-18 130t-36.5 118t-60 85q-37 29 -84 37.5t-78 -2.5q-47 -18 -84 -55q-47 -48 -73 -136.5t-29 -184.5zM477 1155l115 315h184l-203 -315h-96z" />
<glyph unicode="&#xf4;" horiz-adv-x="1134" d="M111 565q7 76 38.5 154t92 152.5t139.5 117.5q85 43 166 53q112 16 236 -18t214 -133q62 -72 94.5 -165t32.5 -179.5t-20 -171.5q-43 -154 -124 -243t-224 -136q-62 -21 -162 -21q-172 0 -295 99q-61 47 -102.5 109t-60 129t-24.5 128.5t-1 124.5zM379 613 q-3 -96 2.5 -178t17.5 -142q44 -205 150 -250q81 -34 156 12q125 75 143 387q1 29 0.5 69t-7 110t-18 130t-36.5 118t-60 85q-37 29 -84 37.5t-78 -2.5q-47 -18 -84 -55q-47 -48 -73 -136.5t-29 -184.5zM403 1155l154 234h127l152 -234h-115l-100 105l-101 -105h-117z" />
<glyph unicode="&#xf5;" horiz-adv-x="1134" d="M111 565q7 76 38.5 154t92 152.5t139.5 117.5q85 43 166 53q112 16 236 -18t214 -133q62 -72 94.5 -165t32.5 -179.5t-20 -171.5q-43 -154 -124 -243t-224 -136q-62 -21 -162 -21q-172 0 -295 99q-61 47 -102.5 109t-60 129t-24.5 128.5t-1 124.5zM379 613 q-3 -96 2.5 -178t17.5 -142q44 -205 150 -250q81 -34 156 12q125 75 143 387q1 29 0.5 69t-7 110t-18 130t-36.5 118t-60 85q-37 29 -84 37.5t-78 -2.5q-47 -18 -84 -55q-47 -48 -73 -136.5t-29 -184.5zM381 1300q59 40 115 43.5t110 -18.5l27 -10q39 -13 56.5 -17.5 t41.5 -3.5t44 14.5t48 41.5l45 -121q-15 -25 -22 -31q-22 -19 -46.5 -28.5t-43.5 -12.5t-51 3t-49.5 11.5t-59.5 18.5l-25 8q-39 16 -67.5 9.5t-77.5 -44.5z" />
<glyph unicode="&#xf6;" horiz-adv-x="1134" d="M111 565q7 76 38.5 154t92 152.5t139.5 117.5q85 43 166 53q112 16 236 -18t214 -133q62 -72 94.5 -165t32.5 -179.5t-20 -171.5q-43 -154 -124 -243t-224 -136q-62 -21 -162 -21q-172 0 -295 99q-61 47 -102.5 109t-60 129t-24.5 128.5t-1 124.5zM362 1260q0 42 31.5 72 t73.5 30q43 0 73.5 -29.5t30.5 -72.5q0 -44 -30.5 -74.5t-73.5 -30.5q-42 0 -73.5 30.5t-31.5 74.5zM379 613q-3 -96 2.5 -178t17.5 -142q44 -205 150 -250q81 -34 156 12q125 75 143 387q1 29 0.5 69t-7 110t-18 130t-36.5 118t-60 85q-37 29 -84 37.5t-78 -2.5 q-47 -18 -84 -55q-47 -48 -73 -136.5t-29 -184.5zM653 1260q0 43 30 72.5t73 29.5t73.5 -29.5t30.5 -72.5q0 -44 -30.5 -74.5t-73.5 -30.5t-73 30.5t-30 74.5z" />
<glyph unicode="&#xf8;" horiz-adv-x="1134" d="M115 604q24 143 92.5 243.5t210.5 162.5q99 46 235.5 39.5t218.5 -68.5l66 109h113l-97 -156q116 -122 150.5 -241.5t9.5 -258.5q-55 -291 -276 -403q-97 -50 -216.5 -53.5t-230.5 38.5l-61 -100h-113l90 147q-127 112 -171 259.5t-21 281.5zM381 585q1 -103 11 -189 t26 -152l377 610q-9 19 -17 33q-45 86 -135 104q-87 15 -164 -59q-50 -54 -74.5 -149t-23.5 -198zM463 131q13 -35 37 -59q31 -31 65 -39q38 -14 83.5 -2.5t82.5 43.5q54 47 83 136.5t31.5 190.5t-3 181.5t-17.5 142.5z" />
<glyph unicode="&#xf9;" horiz-adv-x="1167" d="M117.5 932.5q5.5 8.5 19.5 11.5l285 103q19 5 24 2q7 -5 7 -21v-590q0 -162 12 -214t70 -87q38 -25 102.5 -22.5t110.5 30.5q37 22 51 37.5t20 38.5v168v328q0 25 -1.5 46.5t-2.5 38t-5.5 30.5t-6.5 23t-9 18t-9.5 13t-12 10t-11.5 7.5t-14 7.5l-14 7q-11 6 -6 14.5 t18 11.5l287 103q19 5 23 2q6 -4 6 -21v-717q0 -58 5 -95t18 -56.5t23 -27t33 -17.5q6 -3 9 -4q11 -6 5.5 -16t-19.5 -13l-285 -102q-21 -5 -25 -3q-6 6 -6 23v115q-281 -206 -475 -107q-28 14 -50.5 36t-36.5 42t-23.5 52t-14.5 52.5t-7.5 57.5t-2.5 52.5v51.5v21v344 q0 25 -1.5 46.5t-2.5 38t-5.5 30.5t-6.5 23t-9 18t-9.5 13t-12 10t-11.5 7.5t-14 7.5l-14 7q-11 6 -5.5 14.5zM432 1470h186l113 -315h-96z" />
<glyph unicode="&#xfa;" horiz-adv-x="1167" d="M117.5 932.5q5.5 8.5 19.5 11.5l285 103q19 5 24 2q7 -5 7 -21v-590q0 -162 12 -214t70 -87q38 -25 102.5 -22.5t110.5 30.5q37 22 51 37.5t20 38.5v168v328q0 25 -1.5 46.5t-2.5 38t-5.5 30.5t-6.5 23t-9 18t-9.5 13t-12 10t-11.5 7.5t-14 7.5l-14 7q-11 6 -6 14.5 t18 11.5l287 103q19 5 23 2q6 -4 6 -21v-717q0 -58 5 -95t18 -56.5t23 -27t33 -17.5q6 -3 9 -4q11 -6 5.5 -16t-19.5 -13l-285 -102q-21 -5 -25 -3q-6 6 -6 23v115q-281 -206 -475 -107q-28 14 -50.5 36t-36.5 42t-23.5 52t-14.5 52.5t-7.5 57.5t-2.5 52.5v51.5v21v344 q0 25 -1.5 46.5t-2.5 38t-5.5 30.5t-6.5 23t-9 18t-9.5 13t-12 10t-11.5 7.5t-14 7.5l-14 7q-11 6 -5.5 14.5zM489 1155l115 315h182l-202 -315h-95z" />
<glyph unicode="&#xfb;" horiz-adv-x="1167" d="M117.5 932.5q5.5 8.5 19.5 11.5l285 103q19 5 24 2q7 -5 7 -21v-590q0 -162 12 -214t70 -87q38 -25 102.5 -22.5t110.5 30.5q37 22 51 37.5t20 38.5v168v328q0 25 -1.5 46.5t-2.5 38t-5.5 30.5t-6.5 23t-9 18t-9.5 13t-12 10t-11.5 7.5t-14 7.5l-14 7q-11 6 -6 14.5 t18 11.5l287 103q19 5 23 2q6 -4 6 -21v-717q0 -58 5 -95t18 -56.5t23 -27t33 -17.5q6 -3 9 -4q11 -6 5.5 -16t-19.5 -13l-285 -102q-21 -5 -25 -3q-6 6 -6 23v115q-281 -206 -475 -107q-28 14 -50.5 36t-36.5 42t-23.5 52t-14.5 52.5t-7.5 57.5t-2.5 52.5v51.5v21v344 q0 25 -1.5 46.5t-2.5 38t-5.5 30.5t-6.5 23t-9 18t-9.5 13t-12 10t-11.5 7.5t-14 7.5l-14 7q-11 6 -5.5 14.5zM416 1155l153 234h125l152 -234h-115l-100 105l-99 -105h-116z" />
<glyph unicode="&#xfc;" horiz-adv-x="1167" d="M117.5 932.5q5.5 8.5 19.5 11.5l285 103q19 5 24 2q7 -5 7 -21v-590q0 -162 12 -214t70 -87q38 -25 102.5 -22.5t110.5 30.5q37 22 51 37.5t20 38.5v168v328q0 25 -1.5 46.5t-2.5 38t-5.5 30.5t-6.5 23t-9 18t-9.5 13t-12 10t-11.5 7.5t-14 7.5l-14 7q-11 6 -6 14.5 t18 11.5l287 103q19 5 23 2q6 -4 6 -21v-717q0 -58 5 -95t18 -56.5t23 -27t33 -17.5q6 -3 9 -4q11 -6 5.5 -16t-19.5 -13l-285 -102q-21 -5 -25 -3q-6 6 -6 23v115q-281 -206 -475 -107q-28 14 -50.5 36t-36.5 42t-23.5 52t-14.5 52.5t-7.5 57.5t-2.5 52.5v51.5v21v344 q0 25 -1.5 46.5t-2.5 38t-5.5 30.5t-6.5 23t-9 18t-9.5 13t-12 10t-11.5 7.5t-14 7.5l-14 7q-11 6 -5.5 14.5zM375 1260q0 42 30 72t72 30q43 0 74 -30t31 -72q0 -44 -31 -74.5t-74 -30.5q-42 0 -72 30.5t-30 74.5zM664 1260q0 43 29.5 72.5t72.5 29.5t74.5 -30t31.5 -72 q0 -44 -31.5 -74.5t-74.5 -30.5t-72.5 30.5t-29.5 74.5z" />
<glyph unicode="&#xff;" horiz-adv-x="1071" d="M64.5 -333.5q-3.5 32.5 9.5 59.5q29 57 96 57q47 0 86 -25q12 -9 25.5 -24t25.5 -23.5t29 -11.5q44 -4 86 55q15 23 45.5 100t46.5 140l-61 172l-273 688q-6 15 -12 27.5t-10.5 21.5t-12.5 19t-11.5 14.5t-13.5 13.5t-12 10.5t-14.5 11.5t-13.5 11q-17 17 -12 27 q4 8 32 8h379q23 0 27 -10q2 -5 -8 -25q-24 -32 -33.5 -65t-2.5 -71t16 -64t28 -71q4 -9 6 -14l150 -346l133 328q18 43 25.5 63.5t20 63.5t13.5 69t-7 57t-30 50q-17 17 -12 27q4 8 31 8h192q32 0 37 -10q1 -2 0 -4.5t-4 -5.5l-5.5 -5.5l-6.5 -6.5l-7 -7 q-34 -33 -54.5 -64.5t-39.5 -80.5l-377 -943q-1 -3 -4 -9q-60 -151 -98 -208q-75 -110 -206 -130q-11 -2 -23 -3q-106 -7 -154 66q-18 27 -21.5 59.5zM389 1239q0 33 25 56.5t59 23.5t58 -24t24 -58q0 -33 -26 -57.5t-60 -24.5q-33 0 -56.5 25t-23.5 59zM641 1239 q0 33 25 56.5t59 23.5t58 -24t24 -58q0 -33 -26 -57.5t-60 -24.5q-35 0 -57.5 24.5t-22.5 59.5z" />
<glyph unicode="&#x152;" horiz-adv-x="2512" d="M126.5 765.5q0.5 80.5 6.5 160.5q14 118 61 226.5t139.5 210t219.5 165.5q108 56 256 74q130 17 279 -12t274 -115q-7 20 -21.5 34.5t-25 21t-31.5 15.5q-8 4 -11 11t3 12.5t20 5.5h465h447h32.5h30t24.5 0.5t26.5 1t23.5 2t28.5 3.5t30.5 5q26 4 33 0q5 -3 7.5 -9 t6.5 -21.5t5 -18.5l55 -264q1 -4 2.5 -11.5t2 -11t-1 -8t-5.5 -6.5q-11 -6 -27 10q-160 149 -369.5 216.5t-361.5 15.5q-55 -19 -68 -67t-12 -163v-35v-352h373q72 0 128 9.5t88 22.5t54.5 33.5t32 36t16.5 35.5q3 9 10 12.5t13 -2.5t6 -20v-327q0 -15 -6 -21.5t-13 -3 t-10 13.5q-10 25 -24.5 44.5t-47.5 43t-96 36.5t-151 13h-373v-456q0 -128 9.5 -171.5t58.5 -76.5q38 -25 138 -26t196 14t145 34q112 40 170 79.5t166 144.5q18 18 29 14q10 -4 2 -35l-33 -145q-38 -172 -47 -187q-4 -9 -11 -10q-11 -1 -42.5 7t-91 17t-130.5 9h-934 q-14 0 -20 6t-3.5 13t11.5 10q31 9 52.5 27t29.5 55q-97 -69 -227 -109q-112 -35 -238.5 -36.5t-258.5 39.5t-230 124q-75 64 -131 142.5t-87 159t-49.5 167.5t-18 167.5zM436 716.5q6 -117.5 27.5 -225.5t71.5 -210.5t124 -167.5q50 -46 119 -68.5t130.5 -22t109.5 18.5 q65 22 118 62.5t86.5 85t59 104t39.5 109t25 110.5q14 80 13.5 205.5t-17.5 269t-70 276t-133 199.5q-57 46 -126.5 66.5t-132.5 16.5t-120 -25q-72 -28 -125.5 -74t-87 -106.5t-52.5 -115t-34 -124.5q-16 -76 -23.5 -171t-1.5 -212.5z" />
<glyph unicode="&#x153;" horiz-adv-x="1814" d="M111 563q7 76 38.5 154t92 152.5t139.5 117.5q75 38 166 53q111 17 235.5 -17t214.5 -134l17 -23q46 59 100 99q114 82 270 82q81 0 162 -31q103 -35 160 -103.5t86 -179.5q14 -43 14 -84q-1 -3 1 -21.5t-6.5 -40.5t-26.5 -22h-629q0 -34 8.5 -82t26.5 -104t52 -105.5 t79 -74.5q69 -35 157 -32.5t152 36.5q59 31 86 56.5t63 74.5q7 13 17 10q9 -3 2 -25q-67 -226 -268 -311q-59 -24 -127.5 -31t-142.5 8.5t-134 53.5q-69 47 -121 111q-82 -103 -239 -156q-62 -21 -162 -21q-172 0 -295 99q-61 47 -102.5 109t-60 129t-24.5 128.5t-1 124.5z M379 611q-3 -96 2.5 -178t17.5 -142q44 -205 150 -250q79 -36 156 12q45 27 76 81.5t44 117.5t18 107.5t5 80.5q0 418 -121 512q-37 29 -84 37.5t-78 -2.5q-47 -18 -84 -55q-47 -48 -73 -136.5t-29 -184.5zM1145 629h174h42.5h38.5h32t29 1t24 2.5t21.5 4t16.5 6t15.5 8.5 t11.5 11q33 40 -2 157q-42 130 -133 160q-74 27 -147 -25q-123 -91 -123 -325z" />
<glyph unicode="&#x178;" horiz-adv-x="1452" d="M113 1557v6q5 12 18 12h449q26 0 28 -8q3 -13 -14 -23q-28 -26 -37 -62t1 -80.5t23 -77t35 -79.5l258 -520l244 469q37 70 57.5 135t16.5 126t-45 89q-16 9 -14 19q2 12 28 12h291q25 0 25 -12q0 -10 -17 -21q-79 -54 -121 -143l-424 -805v-344q0 -64 7 -105.5t23.5 -64 t29.5 -31.5t39 -20q10 -4 14 -11t-2.5 -12.5t-21.5 -5.5h-465q-15 0 -21.5 5.5t-3 12.5t13.5 11q26 11 38.5 20t29 31.5t23 64t6.5 105.5v325l-402 859q-19 41 -37.5 62t-52.5 44q-2 1 -5.5 3.5t-6 4t-5.5 4.5t-3 5zM774 1772q-3 4 4 13t26 30.5t30 35.5q67 83 85 101 q75 74 119 20q10 -12 13.5 -24t0.5 -23t-9 -20.5t-19 -19t-24.5 -17.5t-30 -17t-31.5 -15t-33 -15.5t-31 -14.5q-94 -44 -100 -34z" />
<glyph unicode="&#x2c6;" horiz-adv-x="735" d="M207 1155l153 234h127l152 -234h-115l-100 105l-100 -105h-117z" />
<glyph unicode="&#x2dc;" horiz-adv-x="782" d="M207 1298q60 40 115.5 43.5t109.5 -18.5l29 -10q31 -11 45.5 -15t35.5 -6.5t35 3.5t33 18.5t41 34.5l45 -121q-11 -22 -24 -31q-19 -16 -37 -26t-40 -12.5t-36.5 -3t-43 6.5t-42 11t-49.5 16l-27 8q-36 15 -67 8.5t-76 -43.5z" />
<glyph unicode="&#x2000;" horiz-adv-x="1044" />
<glyph unicode="&#x2001;" horiz-adv-x="2089" />
<glyph unicode="&#x2002;" horiz-adv-x="1044" />
<glyph unicode="&#x2003;" horiz-adv-x="2089" />
<glyph unicode="&#x2004;" horiz-adv-x="696" />
<glyph unicode="&#x2005;" horiz-adv-x="522" />
<glyph unicode="&#x2006;" horiz-adv-x="348" />
<glyph unicode="&#x2007;" horiz-adv-x="348" />
<glyph unicode="&#x2008;" horiz-adv-x="261" />
<glyph unicode="&#x2009;" horiz-adv-x="417" />
<glyph unicode="&#x200a;" horiz-adv-x="116" />
<glyph unicode="&#x2010;" horiz-adv-x="782" d="M207 606l51 197h420l-45 -197h-426z" />
<glyph unicode="&#x2011;" horiz-adv-x="782" d="M207 606l51 197h420l-45 -197h-426z" />
<glyph unicode="&#x2012;" horiz-adv-x="782" d="M207 606l51 197h420l-45 -197h-426z" />
<glyph unicode="&#x2013;" horiz-adv-x="1740" d="M207 606l51 197h1387l-52 -197h-1386z" />
<glyph unicode="&#x2014;" horiz-adv-x="2312" d="M207 606l51 197h1927l-51 -197h-1927z" />
<glyph unicode="&#x2018;" horiz-adv-x="589" d="M215 1374q20 157 172 238q-76 -105 -55 -146q7 -15 28 -25.5t49.5 -21t41.5 -18.5q89 -54 69 -156q-13 -77 -96 -115q-31 -13 -75 -8.5t-73 29.5q-83 64 -61 223z" />
<glyph unicode="&#x2019;" horiz-adv-x="589" d="M211 1483q16 80 98 114q31 15 75 11t73 -29q35 -28 51 -68t15 -77.5t-5 -77.5q-20 -157 -172 -238q77 103 55 146q-7 15 -27.5 25.5t-49.5 20.5t-41 17q-44 27 -62 68.5t-10 87.5z" />
<glyph unicode="&#x201c;" horiz-adv-x="991" d="M215 1374q20 157 172 238q-76 -105 -55 -146q7 -15 28 -25.5t49.5 -21t41.5 -18.5q89 -54 69 -156q-13 -77 -96 -115q-31 -13 -75 -8.5t-73 29.5q-83 64 -61 223zM621 1374q20 158 174 238q-78 -103 -58 -146q11 -19 61 -39.5t58 -25.5q89 -52 72 -156q-13 -77 -99 -115 q-31 -13 -73.5 -8.5t-71.5 29.5q-49 38 -60 94t-3 129z" />
<glyph unicode="&#x201d;" horiz-adv-x="991" d="M211 1483q16 80 98 114q31 15 75 11t73 -29q35 -28 51 -68t15 -77.5t-5 -77.5q-20 -157 -172 -238q77 103 55 146q-7 15 -27.5 25.5t-49.5 20.5t-41 17q-44 27 -62 68.5t-10 87.5zM618 1483q12 79 99 114q31 15 73.5 11t71.5 -29q50 -40 61 -95.5t3 -127.5 q-20 -158 -174 -238q78 100 57 146q-8 15 -28.5 25.5t-49.5 20.5t-41 17q-45 27 -62.5 68t-9.5 88z" />
<glyph unicode="&#x2022;" horiz-adv-x="581" d="M209 866q0 69 40 116.5t105 47.5t105.5 -47.5t40.5 -116.5q0 -68 -40.5 -114.5t-105.5 -46.5q-64 0 -104.5 46.5t-40.5 114.5z" />
<glyph unicode="&#x202f;" horiz-adv-x="417" />
<glyph unicode="&#x205f;" horiz-adv-x="522" />
<glyph unicode="&#x25fc;" horiz-adv-x="1013" d="M0 0v1014h1014v-1014h-1014z" />
</font>
</defs>
</svg>
