<svg xmlns="http://www.w3.org/2000/svg" viewBox="0 0 100 90"> <defs></defs> <g fill="none" stroke="#000" stroke-width=".3"> <path d="M29 47.6c10.1 0 19.7 7.6 19.7 20.2C48.7 81.4 38.6 89 28 89 14.3 89 2.2 79.9 2.2 58.2c0-28.3 14.2-45.5 32.8-57.1l1.5 2C18.9 14.7 9.3 29.4 9.3 45c0 4.1 1 7.1 3 9.1C15.9 50.6 19.4 47.6 29 47.6zM78.1 47.5c10.1 0 19.7 7.6 19.7 20.2 0 13.6-10.1 21.2-20.7 21.2-13.6 0-25.8-9.1-25.8-30.8 0-28.3 14.1-45.5 32.8-57.1l1.5 2C68 14.7 58.4 29.3 58.4 45c0 4.1 1 7.1 3 9.1C64.9 50.5 68.5 47.5 78.1 47.5z"></path> </g></svg>